<?xml version="1.0" standalone="no"?>
<!DOCTYPE svg PUBLIC "-//W3C//DTD SVG 20010904//EN"
 "http://www.w3.org/TR/2001/REC-SVG-20010904/DTD/svg10.dtd">
<svg version="1.0" xmlns="http://www.w3.org/2000/svg"
 width="357.000000pt" height="388.000000pt" viewBox="0 0 357.000000 388.000000"
 preserveAspectRatio="xMidYMid meet">
<metadata>
Created by potrace 1.16, written by Peter Selinger 2001-2019
</metadata>
<g transform="translate(0.000000,388.000000) scale(0.100000,-0.100000)"
fill="#fcf5e9" stroke="none">
<path d="M1680 3470 c-34 -17 -73 -56 -329 -325 -140 -146 -203 -212 -591
-618 -320 -334 -350 -369 -369 -429 -31 -96 61 -208 172 -208 36 0 92 35 147
90 53 54 388 402 674 700 161 168 184 190 197 190 5 0 9 -464 9 -1227 0 -1206
0 -1227 20 -1268 55 -113 242 -116 297 -6 17 34 18 108 21 1269 1 696 6 1232
11 1232 8 0 257 -256 781 -805 148 -154 169 -170 240 -169 97 0 159 54 168
144 6 69 -17 109 -138 235 -57 61 -197 207 -310 325 -113 118 -261 274 -330
345 -69 72 -174 182 -235 246 -60 63 -143 150 -184 193 -41 42 -87 84 -102 92
-38 19 -107 17 -149 -6z"/>
</g>
</svg>
