<svg version="1.1" xmlns="http://www.w3.org/2000/svg" xmlns:xlink="http://www.w3.org/1999/xlink" width="300px" height="300px" viewBox="0,0,255.99808,255.99808"><g fill="none" fill-rule="nonzero" stroke="none" stroke-width="1" stroke-linecap="butt" stroke-linejoin="miter" stroke-miterlimit="10" stroke-dasharray="" stroke-dashoffset="0" font-family="none" font-weight="none" font-size="none" text-anchor="none" style="mix-blend-mode: normal"><g transform="scale(2.56,2.56)"><path d="M87.215,56.71c1.135,-2.155 1.785,-4.605 1.785,-7.21c0,-6.621 -4.159,-12.257 -10.001,-14.478c0,-0.007 0.001,-0.014 0.001,-0.022c0,-11.598 -9.402,-21 -21,-21c-9.784,0 -17.981,6.701 -20.313,15.757c-1.476,-0.485 -3.049,-0.757 -4.687,-0.757c-7.692,0 -14.023,5.793 -14.89,13.252c-5.204,1.101 -9.11,5.717 -9.11,11.248c0,6.351 5.149,11.5 11.5,11.5c0.177,0 0.352,-0.012 0.526,-0.022c-0.004,0.175 -0.026,0.346 -0.026,0.522c0,11.322 9.178,20.5 20.5,20.5c6.437,0 12.175,-2.972 15.934,-7.614c2.178,2.225 5.206,3.614 8.566,3.614c4.65,0 8.674,-2.65 10.666,-6.518c1.052,0.335 2.171,0.518 3.334,0.518c6.075,0 11,-4.925 11,-11c0,-3.311 -1.47,-6.273 -3.785,-8.29z" fill="#989898"></path><path d="M29.405,77h-9.905c-0.276,0 -0.5,-0.224 -0.5,-0.5c0,-0.276 0.224,-0.5 0.5,-0.5h9.905c0.276,0 0.5,0.224 0.5,0.5c0,0.276 -0.223,0.5 -0.5,0.5z" fill="#fcf5e9"></path><path d="M32.5,77h-1c-0.276,0 -0.5,-0.224 -0.5,-0.5c0,-0.276 0.224,-0.5 0.5,-0.5h1c0.276,0 0.5,0.224 0.5,0.5c0,0.276 -0.223,0.5 -0.5,0.5z" fill="#fcf5e9"></path><path d="M37.491,79h-8.991c-0.276,0 -0.5,-0.224 -0.5,-0.5c0,-0.276 0.224,-0.5 0.5,-0.5h8.991c0.276,0 0.5,0.224 0.5,0.5c0,0.276 -0.224,0.5 -0.5,0.5z" fill="#fcf5e9"></path><path d="M26.5,79h-1c-0.276,0 -0.5,-0.224 -0.5,-0.5c0,-0.276 0.224,-0.5 0.5,-0.5h1c0.276,0 0.5,0.224 0.5,0.5c0,0.276 -0.223,0.5 -0.5,0.5z" fill="#fcf5e9"></path><path d="M23.5,79h-2c-0.276,0 -0.5,-0.224 -0.5,-0.5c0,-0.276 0.224,-0.5 0.5,-0.5h2c0.276,0 0.5,0.224 0.5,0.5c0,0.276 -0.223,0.5 -0.5,0.5z" fill="#fcf5e9"></path><path d="M29.5,81h-2c-0.276,0 -0.5,-0.224 -0.5,-0.5c0,-0.276 0.224,-0.5 0.5,-0.5h2c0.276,0 0.5,0.224 0.5,0.5c0,0.276 -0.224,0.5 -0.5,0.5z" fill="#fcf5e9"></path><path d="M32.5,72c-0.177,0 -0.823,0 -1,0c-0.276,0 -0.5,0.224 -0.5,0.5c0,0.276 0.224,0.5 0.5,0.5c0.177,0 0.823,0 1,0c0.276,0 0.5,-0.224 0.5,-0.5c0,-0.276 -0.224,-0.5 -0.5,-0.5z" fill="#fcf5e9"></path><path d="M32.5,74c-0.177,0 -4.823,0 -5,0c-0.276,0 -0.5,0.224 -0.5,0.5c0,0.276 0.224,0.5 0.5,0.5c0.177,0 4.823,0 5,0c0.276,0 0.5,-0.224 0.5,-0.5c0,-0.276 -0.224,-0.5 -0.5,-0.5z" fill="#fcf5e9"></path><path d="M37.5,76c-0.177,0 -2.823,0 -3,0c-0.276,0 -0.5,0.224 -0.5,0.5c0,0.276 0.224,0.5 0.5,0.5c0.177,0 2.823,0 3,0c0.276,0 0.5,-0.224 0.5,-0.5c0,-0.276 -0.224,-0.5 -0.5,-0.5z" fill="#fcf5e9"></path><path d="M84.5,44h-10c-0.276,0 -0.5,-0.224 -0.5,-0.5c0,-0.276 0.224,-0.5 0.5,-0.5h10c0.276,0 0.5,0.224 0.5,0.5c0,0.276 -0.224,0.5 -0.5,0.5z" fill="#fcf5e9"></path><path d="M88.5,44h-2c-0.276,0 -0.5,-0.224 -0.5,-0.5c0,-0.276 0.224,-0.5 0.5,-0.5h2c0.276,0 0.5,0.224 0.5,0.5c0,0.276 -0.224,0.5 -0.5,0.5z" fill="#fcf5e9"></path><path d="M93.5,46h-10c-0.276,0 -0.5,-0.224 -0.5,-0.5c0,-0.276 0.224,-0.5 0.5,-0.5h10c0.276,0 0.5,0.224 0.5,0.5c0,0.276 -0.223,0.5 -0.5,0.5z" fill="#fcf5e9"></path><path d="M81.5,46h-1c-0.276,0 -0.5,-0.224 -0.5,-0.5c0,-0.276 0.224,-0.5 0.5,-0.5h1c0.276,0 0.5,0.224 0.5,0.5c0,0.276 -0.224,0.5 -0.5,0.5z" fill="#fcf5e9"></path><path d="M78.375,46h-1.875c-0.276,0 -0.5,-0.224 -0.5,-0.5c0,-0.276 0.224,-0.5 0.5,-0.5h1.875c0.276,0 0.5,0.224 0.5,0.5c0,0.276 -0.224,0.5 -0.5,0.5z" fill="#fcf5e9"></path><path d="M87.5,42h-5c-0.276,0 -0.5,-0.224 -0.5,-0.5c0,-0.276 0.224,-0.5 0.5,-0.5h5c0.276,0 0.5,0.224 0.5,0.5c0,0.276 -0.223,0.5 -0.5,0.5z" fill="#fcf5e9"></path><path d="M84.5,48h-2c-0.276,0 -0.5,-0.224 -0.5,-0.5c0,-0.276 0.224,-0.5 0.5,-0.5h2c0.276,0 0.5,0.224 0.5,0.5c0,0.276 -0.224,0.5 -0.5,0.5z" fill="#fcf5e9"></path><path d="M30.875,52.5c0,0 3.64,0 6.125,0c2.485,0 4.5,-2.015 4.5,-4.5c0,-2.333 -1.782,-4.229 -4.055,-4.455c0.022,-0.181 0.055,-0.358 0.055,-0.545c0,-2.485 -2.015,-4.5 -4.5,-4.5c-1.438,0 -2.703,0.686 -3.527,1.736c-0.14,-2.636 -2.302,-4.736 -4.973,-4.736c-2.761,0 -5,2.239 -5,5c0,0.446 0.077,0.87 0.187,1.282c-0.642,-0.777 -1.601,-1.282 -2.687,-1.282c-1.781,0 -3.234,1.335 -3.455,3.055c-0.181,-0.022 -0.358,-0.055 -0.545,-0.055c-2.485,0 -4.5,2.015 -4.5,4.5c0,2.485 2.015,4.5 4.5,4.5c2.485,0 9.5,0 9.5,0h5.375v0.5h3z" fill="#fcf5e9"></path><path d="M24.5,35c-3.033,0 -5.5,2.467 -5.5,5.5c0,0.016 0,0.031 0,0.047c-0.602,-0.355 -1.29,-0.547 -2,-0.547c-1.831,0 -3.411,1.261 -3.858,3.005c-0.047,-0.003 -0.094,-0.005 -0.142,-0.005c-2.757,0 -5,2.243 -5,5c0,2.757 2.243,5 5,5h14.875c0.276,0 0.5,-0.224 0.5,-0.5c0,-0.276 -0.224,-0.5 -0.5,-0.5h-14.875c-2.206,0 -4,-1.794 -4,-4c0,-2.206 1.794,-4 4,-4c0.117,0 0.23,0.017 0.343,0.032l0.141,0.019c0.021,0.003 0.041,0.004 0.062,0.004c0.246,0 0.462,-0.185 0.495,-0.437c0.191,-1.493 1.463,-2.618 2.959,-2.618c0.885,0 1.723,0.401 2.301,1.1c0.098,0.118 0.241,0.182 0.386,0.182c0.078,0 0.156,-0.018 0.228,-0.056c0.209,-0.107 0.314,-0.346 0.254,-0.573c-0.115,-0.435 -0.169,-0.801 -0.169,-1.153c0,-2.481 2.019,-4.5 4.5,-4.5c2.381,0 4.347,1.872 4.474,4.263c0.011,0.208 0.15,0.387 0.349,0.45c0.05,0.016 0.101,0.024 0.152,0.024c0.15,0 0.296,-0.069 0.392,-0.192c0.771,-0.982 1.912,-1.545 3.133,-1.545c2.206,0 4,1.794 4,4c0,0.117 -0.017,0.23 -0.032,0.343l-0.019,0.141c-0.016,0.134 0.022,0.268 0.106,0.373c0.084,0.105 0.207,0.172 0.34,0.185c2.056,0.205 3.605,1.907 3.605,3.958c0,2.206 -1.794,4 -4,4h-6.125c-0.276,0 -0.5,0.224 -0.5,0.5c0,0.276 0.224,0.5 0.5,0.5h6.125c2.757,0 5,-2.243 5,-5c0,-2.397 -1.689,-4.413 -4.003,-4.877c0.002,-0.041 0.003,-0.082 0.003,-0.123c0,-2.757 -2.243,-5 -5,-5c-1.176,0 -2.293,0.416 -3.183,1.164c-0.598,-2.404 -2.762,-4.164 -5.317,-4.164z" fill="#472b29"></path><path d="M23,42c-1.403,0 -2.609,0.999 -2.913,2.341c-0.367,-0.222 -0.786,-0.341 -1.212,-0.341c-1.202,0 -2.198,0.897 -2.353,2.068c-0.203,-0.046 -0.396,-0.068 -0.585,-0.068c-1.529,0 -2.811,1.2 -2.918,2.732c-0.009,0.138 0.095,0.258 0.232,0.268c0.006,0 0.012,0 0.018,0c0.13,0 0.24,-0.101 0.249,-0.232c0.089,-1.271 1.151,-2.268 2.419,-2.268c0.229,0 0.47,0.042 0.738,0.127c0.022,0.007 0.045,0.01 0.067,0.01c0.055,0 0.11,-0.02 0.156,-0.054c0.064,-0.046 0.102,-0.128 0.102,-0.208c0,-1.034 0.841,-1.875 1.875,-1.875c0.447,0 0.885,0.168 1.231,0.473c0.047,0.041 0.106,0.063 0.165,0.063c0.032,0 0.063,-0.006 0.093,-0.019c0.088,-0.035 0.148,-0.117 0.155,-0.212c0.104,-1.293 1.193,-2.305 2.481,-2.305c0.208,0 0.425,0.034 0.682,0.107c0.023,0.007 0.047,0.01 0.07,0.01c0.109,0 0.207,-0.073 0.239,-0.182c0.038,-0.133 -0.039,-0.271 -0.172,-0.309c-0.302,-0.086 -0.563,-0.126 -0.819,-0.126z" fill="#472b29"></path><path d="M36.883,43.5c-1.326,0 -2.508,0.897 -2.874,2.182c-0.038,0.133 0.039,0.271 0.172,0.309c0.024,0.006 0.047,0.009 0.069,0.009c0.109,0 0.209,-0.072 0.24,-0.182c0.305,-1.07 1.289,-1.818 2.393,-1.818c0.117,0 0.23,0.014 0.342,0.029c0.012,0.002 0.023,0.003 0.035,0.003c0.121,0 0.229,-0.092 0.246,-0.217c0.019,-0.137 -0.077,-0.263 -0.214,-0.281c-0.134,-0.018 -0.27,-0.034 -0.409,-0.034z" fill="#472b29"></path><path d="M36.817,72.185c0,0 -4.409,-10.714 -4.409,-23.809c0,-13.095 15.431,-23.809 23.146,-22.618c7.715,1.19 18.554,18.353 16.533,36.904c-0.367,3.373 -3.307,10.714 -3.307,10.714h-25.258c-5.511,-3.671 -9.277,-10.516 -9.277,-10.516" fill="#f6cca4"></path><path d="M68.78,74.075h-25.259c-0.138,0 -0.273,-0.041 -0.388,-0.117c-3.213,-2.141 -5.819,-5.28 -7.485,-7.619c0.945,3.433 1.796,5.532 1.815,5.579c0.146,0.358 -0.023,0.767 -0.381,0.914c-0.36,0.149 -0.768,-0.023 -0.914,-0.381c-0.045,-0.108 -4.461,-10.993 -4.461,-24.075c0,-6.066 3.285,-12.362 9.012,-17.273c5.009,-4.295 10.876,-6.671 14.94,-6.037c8.243,1.271 19.194,18.654 17.123,37.672c-0.374,3.429 -3.231,10.595 -3.354,10.897c-0.104,0.265 -0.362,0.44 -0.648,0.44zM43.735,72.675h24.567c0.631,-1.622 2.786,-7.315 3.088,-10.09c1.957,-17.963 -8.401,-34.973 -15.943,-36.137c-3.628,-0.557 -9.178,1.738 -13.816,5.717c-5.416,4.645 -8.522,10.554 -8.522,16.211c0,5.177 0.706,10.001 1.549,13.918c0.081,0.059 0.15,0.135 0.201,0.228c0.036,0.066 3.67,6.595 8.876,10.153z" fill="#472b29"></path><g fill="#fcf5e9"><path d="M49.631,44.099c0,0 -3.445,-4.593 -8.037,-3.445c-4.592,1.148 -3.445,6.889 -3.445,9.186c0,2.296 2.296,3.445 5.741,2.296c3.445,-1.148 5.741,-8.037 5.741,-8.037z"></path></g><g fill="#fcf5e9"><path d="M61.113,34.913c0,0 -7.441,3.765 -4.593,8.037c2.296,3.445 4.832,4.258 7.128,4.258c2.296,0 5.502,-0.813 4.354,-3.11c-1.148,-2.296 -4.593,-9.185 -6.889,-9.185z"></path></g><g fill="#472b29"><path d="M56.521,43.45c-0.161,0 -0.319,-0.078 -0.416,-0.223c-0.653,-0.979 -0.872,-2.016 -0.65,-3.081c0.056,-0.271 0.325,-0.446 0.591,-0.388c0.271,0.056 0.444,0.321 0.388,0.591c-0.167,0.805 -0.003,1.564 0.504,2.323c0.153,0.229 0.091,0.54 -0.139,0.693c-0.086,0.058 -0.183,0.085 -0.278,0.085z"></path></g><g fill="#472b29"><path d="M63.648,47.709c-2.359,0 -4.335,-0.85 -6.039,-2.598c-0.192,-0.197 -0.188,-0.514 0.01,-0.707c0.196,-0.192 0.513,-0.188 0.707,0.01c1.526,1.565 3.218,2.295 5.322,2.295c1.539,0 3.436,-0.388 3.962,-1.24c0.192,-0.312 0.175,-0.687 -0.056,-1.146c-3.537,-7.077 -5.387,-8.78 -6.331,-8.902c-0.498,0.27 -2.489,1.403 -3.765,2.963c-0.175,0.215 -0.49,0.246 -0.703,0.07c-0.214,-0.175 -0.245,-0.489 -0.07,-0.703c1.595,-1.951 4.097,-3.229 4.202,-3.283c0.07,-0.035 0.147,-0.054 0.226,-0.054c2.311,0 5.134,5.057 7.336,9.462c0.488,0.978 0.276,1.692 0.012,2.12c-0.781,1.263 -2.998,1.713 -4.813,1.713z"></path></g><g fill="#472b29"><path d="M44.996,67.089c0,0 3.456,-4.49 3.46,-9.083c0.004,-4.296 2.245,-11.714 8.979,-9.001c5.67,2.284 9.377,5.454 10.525,7.75c1.148,2.296 0.088,4.515 -3.357,4.515c-3.444,0 -11.441,10.227 -19.607,5.819z"></path><path d="M49.304,68.697c-1.486,0 -3.01,-0.34 -4.545,-1.168c-0.129,-0.07 -0.221,-0.192 -0.252,-0.336c-0.03,-0.144 0.004,-0.293 0.093,-0.409c0.033,-0.044 3.353,-4.414 3.357,-8.778c0.002,-2.462 0.802,-7.167 3.79,-9.184c1.631,-1.101 3.609,-1.194 5.875,-0.281c6.276,2.529 9.733,5.886 10.786,7.991c0.64,1.279 0.66,2.573 0.057,3.55c-0.673,1.088 -2.044,1.688 -3.861,1.688c-0.971,0 -2.557,1.074 -4.394,2.317c-2.999,2.03 -6.811,4.61 -10.906,4.61zM45.745,66.904c5.067,2.341 10.155,-1.107 13.904,-3.646c2.054,-1.391 3.677,-2.489 4.954,-2.489c1.458,0 2.526,-0.431 3.011,-1.213c0.423,-0.686 0.388,-1.601 -0.101,-2.577c-1.052,-2.104 -4.634,-5.242 -10.265,-7.511c-1.94,-0.78 -3.604,-0.721 -4.942,0.183c-2.299,1.551 -3.348,5.419 -3.35,8.355c-0.003,3.869 -2.308,7.589 -3.211,8.898z"></path></g><g fill="#472b29"><path d="M49.631,44.599c-0.202,0 -0.393,-0.124 -0.468,-0.324c-3.499,-9.331 -15.279,-9.439 -15.397,-9.439c-0.276,0 -0.5,-0.224 -0.5,-0.5c0,-0.276 0.224,-0.5 0.5,-0.5c0.126,0 12.594,0.115 16.333,10.088c0.098,0.259 -0.033,0.547 -0.292,0.644c-0.058,0.021 -0.118,0.031 -0.176,0.031z"></path></g><g fill="#472b29"><path d="M53.101,40.006c-0.276,0 -0.5,-0.224 -0.5,-0.5c0,-0.094 0.122,-9.43 10.652,-13.379c0.257,-0.1 0.547,0.034 0.644,0.292c0.098,0.259 -0.033,0.547 -0.292,0.644c-9.89,3.71 -10.004,12.356 -10.004,12.443c0,0.276 -0.224,0.5 -0.5,0.5z"></path></g><g fill="#472b29"><path d="M52.914,38.983c-0.227,0 -0.432,-0.154 -0.486,-0.384c-1.522,-6.376 1.473,-9.631 1.601,-9.767c0.191,-0.2 0.504,-0.208 0.705,-0.02c0.2,0.188 0.21,0.504 0.022,0.706c-0.112,0.12 -2.745,3.028 -1.355,8.848c0.064,0.269 -0.102,0.538 -0.37,0.603c-0.04,0.01 -0.079,0.014 -0.117,0.014z"></path></g><g><path d="M57.716,53.667c3.289,0 2.436,-3.22 2.353,-3.512c-0.815,-0.408 -1.665,-0.806 -2.592,-1.177c-1.663,-0.665 -3.05,-0.736 -4.2,-0.403c-0.007,0.005 -0.015,0.007 -0.022,0.012c0,0.001 1.017,5.08 4.461,5.08z" fill="#fcf5e9"></path><path d="M57.716,54.167c-3.811,0 -4.906,-5.257 -4.951,-5.481c-0.039,-0.192 0.039,-0.391 0.199,-0.505c0.047,-0.032 0.119,-0.07 0.174,-0.086c1.337,-0.386 2.86,-0.247 4.525,0.42c0.842,0.337 1.677,0.716 2.629,1.193c0.125,0.063 0.218,0.175 0.257,0.309c0.092,0.32 0.509,1.974 -0.355,3.123c-0.513,0.681 -1.347,1.027 -2.478,1.027zM53.862,48.952c0.335,1.181 1.433,4.215 3.854,4.215c0.8,0 1.364,-0.212 1.678,-0.629c0.472,-0.626 0.334,-1.612 0.244,-2.039c-0.842,-0.416 -1.593,-0.754 -2.346,-1.057c-1.264,-0.504 -2.413,-0.67 -3.43,-0.49z" fill="#472b29"></path><path d="M64.558,61.322c0.648,0 1.188,-0.103 1.674,-0.251c-0.439,-1.043 -1.995,-4.307 -3.934,-3.338c-2.296,1.148 -2.225,5.526 -2.225,5.526c0,0 -1.399,-3.229 -3.696,-2.081c-2.296,1.148 -2.153,5.885 -2.153,5.885c0,0 -1.148,-4.593 -3.445,-3.445c-2.296,1.148 -3.546,4.298 -3.546,4.298c0.076,0.036 0.158,0.06 0.235,0.094c7.184,1.651 13.993,-6.688 17.09,-6.688z" fill="#fcf5e9"></path><path d="M49.38,68.725c-0.67,0 -1.345,-0.07 -2.023,-0.227l-0.17,-0.062c-0.057,-0.021 -0.113,-0.043 -0.167,-0.068c-0.238,-0.113 -0.348,-0.392 -0.251,-0.637c0.054,-0.136 1.348,-3.341 3.787,-4.561c0.588,-0.294 1.191,-0.312 1.745,-0.059c0.679,0.313 1.202,0.996 1.585,1.703c0.242,-1.52 0.834,-3.367 2.268,-4.084c0.685,-0.342 1.367,-0.394 2.033,-0.15c0.614,0.224 1.114,0.671 1.493,1.124c0.201,-1.486 0.772,-3.608 2.394,-4.419c0.544,-0.271 1.105,-0.304 1.667,-0.097c1.441,0.533 2.468,2.539 2.952,3.688c0.055,0.131 0.052,0.278 -0.008,0.406c-0.061,0.129 -0.172,0.226 -0.308,0.267c-0.612,0.186 -1.19,0.272 -1.819,0.272c-0.968,0 -2.551,1.077 -4.385,2.323c-2.905,1.977 -6.735,4.581 -10.793,4.581zM47.923,67.606c1.938,0.374 3.867,-0.027 5.71,-0.793c-0.275,-0.881 -0.904,-2.404 -1.751,-2.793c-0.279,-0.128 -0.56,-0.114 -0.879,0.045c-1.577,0.789 -2.642,2.649 -3.08,3.541zM57.354,61.432c-0.245,0 -0.494,0.064 -0.753,0.194c-1.386,0.692 -1.794,3.181 -1.867,4.687c1.722,-0.852 3.353,-1.957 4.829,-2.961c-0.178,-0.357 -0.805,-1.5 -1.72,-1.832c-0.162,-0.059 -0.325,-0.088 -0.489,-0.088zM63.014,58.056c-0.164,0 -0.326,0.041 -0.493,0.125c-1.417,0.709 -1.85,3.098 -1.933,4.478c1.598,-1.066 2.904,-1.836 3.97,-1.836c0.335,0 0.652,-0.029 0.972,-0.091c-0.417,-0.868 -1.211,-2.262 -2.137,-2.604c-0.13,-0.049 -0.255,-0.072 -0.379,-0.072z" fill="#472b29"></path><g><path d="M53.076,55.581c2.098,-1.049 0.264,-6.046 -0.07,-6.905c-1.857,0.666 -3.058,2.42 -3.749,4.437c0.089,0.205 1.592,3.581 3.819,2.468z" fill="#fcf5e9"></path><path d="M52.181,56.307c-0.271,0 -0.543,-0.049 -0.812,-0.147c-1.549,-0.564 -2.472,-2.617 -2.571,-2.849c-0.05,-0.114 -0.055,-0.243 -0.014,-0.36c0.841,-2.454 2.242,-4.095 4.053,-4.745c0.256,-0.09 0.537,0.037 0.635,0.29c0.568,1.463 2.236,6.329 -0.173,7.533v0v0c-0.371,0.185 -0.745,0.278 -1.118,0.278zM49.796,53.088c0.329,0.686 1.054,1.817 1.916,2.132c0.374,0.138 0.749,0.108 1.14,-0.086v0c1.148,-0.574 0.754,-3.314 -0.132,-5.793c-1.55,0.772 -2.436,2.4 -2.924,3.747z" fill="#472b29"></path></g></g><g fill="#472b29"><path d="M32.104,67.606c-0.188,0 -0.37,-0.107 -0.454,-0.291c-1.852,-4.02 -2.272,-15.124 -0.183,-21.411c0.087,-0.261 0.366,-0.405 0.633,-0.316c0.262,0.087 0.403,0.37 0.316,0.633c-1.988,5.98 -1.6,16.896 0.142,20.677c0.115,0.251 0.006,0.548 -0.245,0.663c-0.067,0.031 -0.138,0.045 -0.209,0.045z"></path></g><g fill="#472b29"><path d="M37.038,72.236c-0.186,0 -0.364,-0.104 -0.45,-0.282c-2.078,-4.307 -4.918,-13.549 -4.223,-21.361c0.024,-0.276 0.285,-0.479 0.542,-0.454c0.275,0.024 0.479,0.268 0.454,0.542c-0.678,7.611 2.097,16.632 4.127,20.838c0.12,0.249 0.016,0.548 -0.232,0.668c-0.07,0.034 -0.145,0.049 -0.218,0.049z"></path></g><g fill="#1f212b"><circle cx="40.266" cy="47.954" r="1.857"></circle></g><g fill="#1f212b"><circle cx="61.624" cy="38.667" r="1.857"></circle></g><g fill="#472b29"><path d="M41.393,53.087c-1.208,0 -2.198,-0.351 -2.868,-1.017c-0.572,-0.569 -0.875,-1.341 -0.875,-2.23c0,-0.329 -0.024,-0.73 -0.052,-1.18c-0.167,-2.771 -0.446,-7.41 3.875,-8.491c4.853,-1.21 8.409,3.432 8.559,3.63c0.098,0.131 0.126,0.303 0.074,0.458c-0.019,0.056 -0.466,1.387 -1.265,2.992c-0.122,0.248 -0.425,0.349 -0.67,0.225c-0.247,-0.122 -0.348,-0.423 -0.225,-0.67c0.565,-1.138 0.954,-2.15 1.12,-2.606c-0.716,-0.842 -3.677,-3.982 -7.352,-3.058c-3.515,0.879 -3.276,4.84 -3.119,7.46c0.028,0.473 0.054,0.895 0.054,1.24c0,0.627 0.195,1.139 0.58,1.521c0.483,0.479 1.262,0.73 2.193,0.726c0.001,0 0.002,0 0.003,0c0.274,0 0.498,0.222 0.5,0.497c0.002,0.276 -0.221,0.501 -0.497,0.503c-0.011,0 -0.024,0 -0.035,0z"></path></g><g fill="#472b29"><path d="M43.89,52.636c-0.209,0 -0.404,-0.133 -0.475,-0.342c-0.087,-0.262 0.055,-0.545 0.316,-0.633c0.936,-0.312 1.89,-1.153 2.836,-2.501c0.159,-0.227 0.473,-0.281 0.696,-0.122c0.227,0.158 0.281,0.471 0.122,0.696c-1.072,1.527 -2.195,2.495 -3.338,2.876c-0.052,0.018 -0.105,0.026 -0.157,0.026z"></path></g><g fill="#472b29"><path d="M43.98,70.491c-0.055,0 -0.109,-0.018 -0.155,-0.054c-1.094,-0.863 -2.104,-1.804 -3.002,-2.794c-0.093,-0.103 -0.085,-0.261 0.018,-0.354c0.102,-0.094 0.26,-0.085 0.354,0.018c0.879,0.97 1.868,1.891 2.941,2.737c0.108,0.086 0.127,0.243 0.041,0.352c-0.05,0.063 -0.122,0.095 -0.197,0.095z"></path></g><g fill="#472b29"><path d="M39.444,65.796c-0.077,0 -0.154,-0.036 -0.203,-0.104c-4.11,-5.693 -3.872,-11.196 -3.869,-11.251c0.008,-0.138 0.146,-0.238 0.263,-0.237c0.138,0.008 0.244,0.125 0.237,0.263c-0.003,0.054 -0.228,5.39 3.775,10.933c0.08,0.112 0.055,0.269 -0.057,0.35c-0.043,0.03 -0.095,0.046 -0.146,0.046z"></path></g><g><path d="M79.5,77.5c0,0 1.567,0 3.5,0c1.933,0 3.5,-1.567 3.5,-3.5c0,-1.781 -1.335,-3.234 -3.055,-3.455c0.028,-0.179 0.055,-0.358 0.055,-0.545c0,-1.933 -1.567,-3.5 -3.5,-3.5c-1.032,0 -1.95,0.455 -2.59,1.165c-0.384,-1.808 -1.987,-3.165 -3.91,-3.165c-2.209,0 -4,1.791 -4,4c0,0.191 0.03,0.374 0.056,0.558c-0.428,-0.344 -0.964,-0.558 -1.556,-0.558c-1.228,0 -2.245,0.887 -2.455,2.055c-0.179,-0.028 -0.358,-0.055 -0.545,-0.055c-1.933,0 -3.5,1.567 -3.5,3.5c0,1.933 1.567,3.5 3.5,3.5c1.933,0 7.5,0 7.5,0v0.5h7z" fill="#fcf5e9"></path><path d="M81.25,73c-0.138,0 -0.25,-0.112 -0.25,-0.25c0,-1.223 0.995,-2.218 2.218,-2.218c0.034,0.009 0.737,-0.001 1.244,0.136c0.133,0.036 0.212,0.173 0.176,0.306c-0.036,0.134 -0.173,0.213 -0.306,0.176c-0.444,-0.12 -1.1,-0.12 -1.113,-0.118c-0.948,0 -1.719,0.771 -1.719,1.718c0,0.138 -0.112,0.25 -0.25,0.25z" fill="#472b29"></path><circle cx="74.5" cy="77.5" r="0.5" fill="#472b29"></circle><path d="M83,78h-3.5c-0.276,0 -0.5,-0.224 -0.5,-0.5c0,-0.276 0.224,-0.5 0.5,-0.5h3.5c1.654,0 3,-1.346 3,-3c0,-1.496 -1.125,-2.768 -2.618,-2.959c-0.134,-0.018 -0.255,-0.088 -0.336,-0.196c-0.081,-0.108 -0.115,-0.244 -0.094,-0.377c0.023,-0.154 0.048,-0.308 0.048,-0.468c0,-1.654 -1.346,-3 -3,-3c-0.85,0 -1.638,0.355 -2.219,1c-0.125,0.139 -0.321,0.198 -0.5,0.148c-0.182,-0.049 -0.321,-0.195 -0.36,-0.379c-0.341,-1.604 -1.78,-2.769 -3.421,-2.769c-1.93,0 -3.5,1.57 -3.5,3.5c0,0.143 0.021,0.28 0.041,0.418c0.029,0.203 -0.063,0.438 -0.242,0.54c-0.179,0.102 -0.396,0.118 -0.556,-0.01c-0.365,-0.293 -0.794,-0.448 -1.243,-0.448c-0.966,0 -1.792,0.691 -1.963,1.644c-0.048,0.267 -0.296,0.446 -0.569,0.405c-0.154,-0.024 -0.308,-0.049 -0.468,-0.049c-1.654,0 -3,1.346 -3,3c0,1.654 1.346,3 3,3h7.5c0.276,0 0.5,0.224 0.5,0.5c0,0.276 -0.224,0.5 -0.5,0.5h-7.5c-2.206,0 -4,-1.794 -4,-4c0,-2.206 1.794,-4 4,-4c0.059,0 0.116,0.002 0.174,0.006c0.414,-1.186 1.537,-2.006 2.826,-2.006c0.349,0 0.689,0.061 1.011,0.18c0.165,-2.333 2.115,-4.18 4.489,-4.18c1.831,0 3.466,1.127 4.153,2.774c0.68,-0.498 1.502,-0.774 2.347,-0.774c2.206,0 4,1.794 4,4c0,0.048 -0.001,0.095 -0.004,0.142c1.743,0.448 3.004,2.027 3.004,3.858c0,2.206 -1.794,4 -4,4z" fill="#472b29"></path><path d="M77.5,77c-0.159,0 -0.841,0 -1,0c-0.276,0 -0.5,0.224 -0.5,0.5c0,0.276 0.224,0.5 0.5,0.5c0.159,0 0.841,0 1,0c0.276,0 0.5,-0.224 0.5,-0.5c0,-0.276 -0.224,-0.5 -0.5,-0.5z" fill="#472b29"></path></g></g></g></svg>