<svg version="1.1" xmlns="http://www.w3.org/2000/svg" xmlns:xlink="http://www.w3.org/1999/xlink" width="144px" height="144px" viewBox="0,0,255.99808,255.99808"><g fill="none" fill-rule="nonzero" stroke="none" stroke-width="none" stroke-linecap="none" stroke-linejoin="miter" stroke-miterlimit="10" stroke-dasharray="" stroke-dashoffset="0" font-family="none" font-weight="none" font-size="none" text-anchor="none" style="mix-blend-mode: normal"><g transform="scale(5.33333,5.33333)"><path d="M42,45h-28c-1.7,0 -3,-1.3 -3,-3v-28c0,-1.7 1.3,-3 3,-3h28c1.7,0 3,1.3 3,3v28c0,1.7 -1.3,3 -3,3z" fill="#9fa8da" stroke="none" stroke-width="1" stroke-linecap="butt"></path><path d="M10.5,33.5h-2M18.5,33.5h-2M26.5,33.5h-2M34.5,33.5h-2M42.5,33.5h-2" fill="none" stroke="#FCF5E9" stroke-width="3" stroke-linecap="round"></path><path d="M7.5,27.5h-2M15.5,27.5h-2M23.5,27.5h-2M31.5,27.5h-2M39.5,27.5h-2" fill="none" stroke="#FCF5E9" stroke-width="3" stroke-linecap="round"></path><path d="M7.5,15.5h-2M15.5,15.5h-2M23.5,15.5h-2M31.5,15.5h-2M39.5,15.5h-2" fill="none" stroke="#FCF5E9" stroke-width="3" stroke-linecap="round"></path><path d="M7.5,39.5h-2M15.5,39.5h-2M23.5,39.5h-2M31.5,39.5h-2M39.5,39.5h-2" fill="none" stroke="#FCF5E9" stroke-width="3" stroke-linecap="round"></path><path d="M10.5,21.5h-2M18.5,21.5h-2M26.5,21.5h-2M34.5,21.5h-2M42.5,21.5h-2" fill="none" stroke="#FCF5E9" stroke-width="3" stroke-linecap="round"></path><path d="M10.5,9.5h-2M18.5,9.5h-2M26.5,9.5h-2M34.5,9.5h-2M42.5,9.5h-2" fill="none" stroke="#FCF5E9" stroke-width="3" stroke-linecap="round"></path></g></g></svg>