<svg version="1.1" xmlns="http://www.w3.org/2000/svg" xmlns:xlink="http://www.w3.org/1999/xlink" width="144px" height="144px" viewBox="0,0,255.99808,255.99808"><g fill="none" fill-rule="nonzero" stroke="none" stroke-width="none" stroke-linecap="none" stroke-linejoin="none" stroke-miterlimit="none" stroke-dasharray="" stroke-dashoffset="0" font-family="none" font-weight="none" font-size="none" text-anchor="none" style="mix-blend-mode: normal"><g transform="scale(5.33333,5.33333)"><path d="M41.3,20.5h-2.6v-0.5c0.1,-6 -4.8,-10.8 -10.7,-10.8c-5.9,0 -10.8,4.8 -10.8,10.8v0.5h-2.6c-3.7,0 -6.7,3 -6.7,6.7c0,3.7 3,6.7 6.7,6.7h26.7c3.7,0 6.7,-3 6.7,-6.7c0,-3.7 -3,-6.7 -6.7,-6.7z" fill="#8ce7f2" stroke="none" stroke-width="1" stroke-linecap="butt" stroke-linejoin="miter" stroke-miterlimit="10"></path><path d="M9.5,40.5l3,-5" fill="none" stroke="#ffffff" stroke-width="3" stroke-linecap="round" stroke-linejoin="round" stroke-miterlimit="10"></path><path d="M31.5,40.5l3,-5" fill="none" stroke="#ffffff" stroke-width="3" stroke-linecap="round" stroke-linejoin="round" stroke-miterlimit="10"></path><path d="M24,5.5c-5.8,0 -10.5,4.7 -10.5,10.5v0.5h-2.5c-3.6,0 -6.5,2.9 -6.5,6.5c0,3.6 2.9,6.5 6.5,6.5h2.4" fill="none" stroke="#ffffff" stroke-width="3" stroke-linecap="round" stroke-linejoin="round" stroke-miterlimit="10.417"></path><path d="M32,29.5h5c3.6,0 6.5,-2.9 6.5,-6.5c0,-3.6 -2.9,-6.5 -6.5,-6.5h-2.5v-0.5c0,-3 -1.3,-5.8 -3.4,-7.7" fill="none" stroke="#ffffff" stroke-width="3" stroke-linecap="round" stroke-linejoin="round" stroke-miterlimit="10.417"></path><path d="M23.5,23.5l-3.6,4.4c-0.5,0.7 -0.1,1.6 0.8,1.6h4.7c0.8,0 1.3,1 0.8,1.6l-3.6,4.4" fill="none" stroke="#ffffff" stroke-width="3" stroke-linecap="round" stroke-linejoin="round" stroke-miterlimit="10"></path></g></g></svg>