<svg version="1.1" xmlns="http://www.w3.org/2000/svg" xmlns:xlink="http://www.w3.org/1999/xlink" width="144px" height="144px" viewBox="0,0,255.99808,255.99808"><g fill="none" fill-rule="nonzero" stroke="none" stroke-width="none" stroke-linecap="none" stroke-linejoin="none" stroke-miterlimit="10" stroke-dasharray="" stroke-dashoffset="0" font-family="none" font-weight="none" font-size="none" text-anchor="none" style="mix-blend-mode: normal"><g transform="scale(5.33333,5.33333)"><path d="M40,22.6c-0.7,0 -1.9,0 -1.9,0c0,0 0,-0.2 0,-0.5c0,-5.6 -4.5,-10.1 -10.1,-10.1c-5.6,0 -10.1,4.5 -10.1,10.1c0,0.3 0,0.5 0,0.5c0,0 -1.2,0 -1.9,0c-3.7,0 -6.7,3 -6.7,6.7c0,3.7 3,6.7 6.7,6.7c3.3,0 20.7,0 23.9,0c3.7,0 6.7,-3 6.7,-6.7c0,-3.7 -2.9,-6.7 -6.6,-6.7z" fill="#8ce7f2" stroke="none" stroke-width="1" stroke-linecap="butt" stroke-linejoin="miter"></path><path d="M32.8,12.2c-1.9,-2.8 -5.1,-4.7 -8.8,-4.7c-5.8,0 -10.5,4.7 -10.5,10.5c0,0.3 0,0.5 0,0.5c0,0 -1.3,0 -2,0c-3.9,0 -7,3.1 -7,7c0,3.9 3.1,7 7,7c0.1,0 2.7,0 2.8,0" fill="none" stroke="#ffffff" stroke-width="3" stroke-linecap="round" stroke-linejoin="round"></path><path d="M19.8,32.5c6.7,0 14.4,0 16.7,0c3.9,0 7,-3.1 7,-7c0,-3.9 -3.1,-7 -7,-7c-0.7,0 -2,0 -2,0" fill="none" stroke="#ffffff" stroke-width="3" stroke-linecap="round" stroke-linejoin="round"></path><path d="M9.5,40.5l1.8,-3" fill="none" stroke="#ffffff" stroke-width="3" stroke-linecap="round" stroke-linejoin="round"></path><path d="M20.5,40.5l4.8,-8" fill="none" stroke="#ffffff" stroke-width="3" stroke-linecap="round" stroke-linejoin="round"></path><path d="M33.1,37.8l3.2,-5.3" fill="none" stroke="#ffffff" stroke-width="3" stroke-linecap="round" stroke-linejoin="round"></path><path d="M31.5,40.5l1.6,-2.7" fill="none" stroke="#ffffff" stroke-width="3" stroke-linecap="round" stroke-linejoin="round"></path></g></g></svg>