<svg version="1.1" xmlns="http://www.w3.org/2000/svg" xmlns:xlink="http://www.w3.org/1999/xlink" width="192px" height="192px" viewBox="0,0,255.99808,255.99808"><g fill="none" fill-rule="nonzero" stroke="none" stroke-width="1" stroke-linecap="butt" stroke-linejoin="miter" stroke-miterlimit="10" stroke-dasharray="" stroke-dashoffset="0" font-family="none" font-weight="none" font-size="none" text-anchor="none" style="mix-blend-mode: normal"><g transform="scale(5.33333,5.33333)"><path d="M9,40c-0.553,0 -1,-0.447 -1,-1v-5c0,-0.553 0.447,-1 1,-1c0.553,0 1,0.447 1,1v5c0,0.553 -0.447,1 -1,1z" fill="#fcf5e9"></path><path d="M14,44c-0.553,0 -1,-0.447 -1,-1v-8c0,-0.553 0.447,-1 1,-1c0.553,0 1,0.447 1,1v8c0,0.553 -0.447,1 -1,1z" fill="#fcf5e9"></path><path d="M19,40c-0.553,0 -1,-0.447 -1,-1v-5c0,-0.553 0.447,-1 1,-1c0.553,0 1,0.447 1,1v5c0,0.553 -0.447,1 -1,1z" fill="#fcf5e9"></path><path d="M24,44c-0.553,0 -1,-0.447 -1,-1v-8c0,-0.553 0.447,-1 1,-1c0.553,0 1,0.447 1,1v8c0,0.553 -0.447,1 -1,1z" fill="#fcf5e9"></path><path d="M29,40c-0.553,0 -1,-0.447 -1,-1v-5c0,-0.553 0.447,-1 1,-1c0.553,0 1,0.447 1,1v5c0,0.553 -0.447,1 -1,1z" fill="#fcf5e9"></path><path d="M34,44c-0.553,0 -1,-0.447 -1,-1v-8c0,-0.553 0.447,-1 1,-1c0.553,0 1,0.447 1,1v8c0,0.553 -0.447,1 -1,1z" fill="#fcf5e9"></path><path d="M39,40c-0.553,0 -1,-0.447 -1,-1v-5c0,-0.553 0.447,-1 1,-1c0.553,0 1,0.447 1,1v5c0,0.553 -0.447,1 -1,1z" fill="#fcf5e9"></path><path d="M37,15c-0.649,0 -1.278,0.086 -1.882,0.233c-1.273,-5.842 -6.479,-10.233 -12.697,-10.233c-5.533,0 -10.257,3.481 -12.13,8.363c-4.141,0.759 -7.291,4.386 -7.291,8.742c0,4.905 3.99,8.895 8.895,8.895c0.028,0 0.056,-0.004 0.084,-0.004c0.007,0 0.013,0.004 0.021,0.004h25c4.411,0 8,-3.589 8,-8c0,-4.411 -3.589,-8 -8,-8z" fill="#12d9e3"></path></g></g></svg>