<svg version="1.1" xmlns="http://www.w3.org/2000/svg" xmlns:xlink="http://www.w3.org/1999/xlink" width="144px" height="144px" viewBox="0,0,255.99808,255.99808"><g fill="none" fill-rule="nonzero" stroke="none" stroke-width="none" stroke-linecap="none" stroke-linejoin="none" stroke-miterlimit="10" stroke-dasharray="" stroke-dashoffset="0" font-family="none" font-weight="none" font-size="none" text-anchor="none" style="mix-blend-mode: normal"><g transform="scale(5.33333,5.33333)"><path d="M40.7,22.4c-0.7,0 -2.1,0 -2.1,0c0,0 0,-0.2 0,-0.5c0,-6 -4.9,-10.9 -10.9,-10.9c-6,0 -10.9,4.9 -10.9,10.9c0,0.3 0,0.5 0,0.5c0,0 -1.3,0 -2.1,0c-4,0 -7.3,3.3 -7.3,7.3c0,4 3.3,7.3 7.3,7.3c3.5,0 22.4,0 26,0c4,0 7.3,-3.3 7.3,-7.3c0,-4 -3.3,-7.3 -7.3,-7.3z" fill="#8ce7f2" stroke="none" stroke-width="1" stroke-linecap="butt" stroke-linejoin="miter"></path><path d="M43.1,28c0.3,-0.8 0.4,-1.6 0.4,-2.5c0,-3.9 -3.1,-7 -7,-7c-0.7,0 -2,0 -2,0c0,0 0,-0.2 0,-0.5c0,-5.8 -4.7,-10.5 -10.5,-10.5c-1.3,0 -2.5,0.2 -3.6,0.7" fill="none" stroke="#ffffff" stroke-width="3" stroke-linecap="round" stroke-linejoin="round"></path><path d="M15.3,12.1c-1.2,1.7 -1.8,3.7 -1.8,5.9c0,0.3 0,0.5 0,0.5c0,0 -1.3,0 -2,0c-3.9,0 -7,3.1 -7,7c0,3.9 3.1,7 7,7c3.4,0 21.6,0 25,0" fill="none" stroke="#ffffff" stroke-width="3" stroke-linecap="round" stroke-linejoin="round"></path><circle cx="13" cy="37.5" r="1.5" fill="#ffffff" stroke="none" stroke-width="1" stroke-linecap="butt" stroke-linejoin="miter"></circle><circle cx="18.5" cy="42.5" r="1.5" fill="#ffffff" stroke="none" stroke-width="1" stroke-linecap="butt" stroke-linejoin="miter"></circle><circle cx="29.5" cy="42.5" r="1.5" fill="#ffffff" stroke="none" stroke-width="1" stroke-linecap="butt" stroke-linejoin="miter"></circle><circle cx="35" cy="37.5" r="1.5" fill="#ffffff" stroke="none" stroke-width="1" stroke-linecap="butt" stroke-linejoin="miter"></circle><circle cx="24" cy="37.5" r="1.5" fill="#ffffff" stroke="none" stroke-width="1" stroke-linecap="butt" stroke-linejoin="miter"></circle></g></g></svg>