<svg version="1.1" xmlns="http://www.w3.org/2000/svg" xmlns:xlink="http://www.w3.org/1999/xlink" width="144px" height="144px" viewBox="0,0,255.99808,255.99808"><g fill="none" fill-rule="nonzero" stroke="none" stroke-width="none" stroke-linecap="none" stroke-linejoin="none" stroke-miterlimit="10" stroke-dasharray="" stroke-dashoffset="0" font-family="none" font-weight="none" font-size="none" text-anchor="none" style="mix-blend-mode: normal"><g transform="scale(5.33333,5.33333)"><path d="M45.3,15.5l-2,12.3c-0.2,1 -1.6,1.2 -1.9,0.2l-2.6,-7.8c-0.7,-2.2 -3.8,-1.9 -4.2,0.3l-4.1,22.4c-0.2,1.1 -1.8,1.1 -2,0l-4.2,-23.1c-0.3,-1.7 -2.7,-1.8 -3.1,-0.1l-3.9,17.6c-0.2,1.1 -1.7,1.1 -2,0l-4.8,-21.6c-0.4,-1.9 1,-3.7 2.9,-3.7h8.9h19.8c2.1,0 3.5,1.7 3.2,3.5z" fill="#90caf9" stroke="none" stroke-width="1" stroke-linecap="butt" stroke-linejoin="miter"></path><path d="M26.9,36.8l-0.4,2.1c-0.2,1.1 -1.8,1.1 -2,0l-4.1,-22.9c-0.3,-1.7 -2.7,-1.7 -3.1,-0.1l-3.9,17.4c-0.2,1 -1.7,1 -2,0l-2.5,-11.6" fill="none" stroke="#ffffff" stroke-width="3" stroke-linecap="round" stroke-linejoin="round"></path><path d="M7.7,16.2l-1,-4.3c-0.4,-1.9 1,-3.7 2.9,-3.7h8.9h19.8c1.9,0 3.3,1.7 3,3.5l-2,12.2c-0.2,1 -1.6,1.1 -1.9,0.2l-2.6,-7.7c-0.7,-2.1 -3.8,-1.9 -4.2,0.3l-2.6,14.2" fill="none" stroke="#ffffff" stroke-width="3" stroke-linecap="round" stroke-linejoin="round"></path></g></g></svg>