<svg version="1.1" xmlns="http://www.w3.org/2000/svg" xmlns:xlink="http://www.w3.org/1999/xlink" width="192px" height="192px" viewBox="0,0,255.99808,255.99808"><g fill="none" fill-rule="nonzero" stroke="none" stroke-width="1" stroke-linecap="butt" stroke-linejoin="miter" stroke-miterlimit="10" stroke-dasharray="" stroke-dashoffset="0" font-family="none" font-weight="none" font-size="none" text-anchor="none" style="mix-blend-mode: normal"><g transform="scale(5.33333,5.33333)"><path d="M37,13c-0.649,0 -1.278,0.086 -1.882,0.233c-1.273,-5.842 -6.479,-10.233 -12.697,-10.233c-5.533,0 -10.257,3.481 -12.13,8.363c-4.141,0.759 -7.291,4.386 -7.291,8.742c0,4.905 3.99,8.895 8.895,8.895c0.028,0 0.056,-0.004 0.084,-0.004c0.007,0 0.013,0.004 0.021,0.004h25c4.411,0 8,-3.589 8,-8c0,-4.411 -3.589,-8 -8,-8z" fill="#12d9e3"></path><path d="M24,45c-0.553,0 -1,-0.447 -1,-1v-7c0,-0.553 0.447,-1 1,-1c0.553,0 1,0.447 1,1v7c0,0.553 -0.447,1 -1,1z" fill="#fcf5e9"></path><path d="M27.03,43.25c-0.17,0 -0.342,-0.043 -0.499,-0.134l-6.062,-3.5c-0.479,-0.276 -0.643,-0.888 -0.366,-1.366c0.277,-0.478 0.889,-0.642 1.366,-0.366l6.062,3.5c0.479,0.276 0.643,0.888 0.366,1.366c-0.185,0.32 -0.521,0.5 -0.867,0.5z" fill="#fcf5e9"></path><path d="M20.97,43.25c-0.346,0 -0.682,-0.179 -0.867,-0.5c-0.276,-0.479 -0.112,-1.09 0.366,-1.366l6.062,-3.5c0.476,-0.275 1.089,-0.114 1.366,0.366c0.276,0.479 0.112,1.09 -0.366,1.366l-6.062,3.5c-0.157,0.091 -0.329,0.134 -0.499,0.134z" fill="#fcf5e9"></path><path d="M36,41c-0.553,0 -1,-0.447 -1,-1v-7c0,-0.553 0.447,-1 1,-1c0.553,0 1,0.447 1,1v7c0,0.553 -0.447,1 -1,1z" fill="#fcf5e9"></path><path d="M39.03,39.25c-0.17,0 -0.342,-0.043 -0.499,-0.134l-6.062,-3.5c-0.479,-0.276 -0.643,-0.888 -0.366,-1.366c0.277,-0.478 0.888,-0.643 1.366,-0.366l6.062,3.5c0.479,0.276 0.643,0.888 0.366,1.366c-0.185,0.32 -0.521,0.5 -0.867,0.5z" fill="#fcf5e9"></path><path d="M32.97,39.25c-0.346,0 -0.682,-0.179 -0.867,-0.5c-0.276,-0.479 -0.112,-1.09 0.366,-1.366l6.062,-3.5c0.476,-0.276 1.089,-0.113 1.366,0.366c0.276,0.479 0.112,1.09 -0.366,1.366l-6.062,3.5c-0.157,0.091 -0.329,0.134 -0.499,0.134z" fill="#fcf5e9"></path><path d="M12,41c-0.553,0 -1,-0.447 -1,-1v-7c0,-0.553 0.447,-1 1,-1c0.553,0 1,0.447 1,1v7c0,0.553 -0.447,1 -1,1z" fill="#fcf5e9"></path><path d="M8.97,39.25c-0.346,0 -0.682,-0.179 -0.867,-0.5c-0.276,-0.479 -0.112,-1.09 0.366,-1.366l6.062,-3.5c0.476,-0.276 1.089,-0.113 1.366,0.366c0.276,0.479 0.112,1.09 -0.366,1.366l-6.062,3.5c-0.157,0.091 -0.329,0.134 -0.499,0.134z" fill="#fcf5e9"></path><path d="M15.03,39.25c-0.17,0 -0.342,-0.043 -0.499,-0.134l-6.062,-3.5c-0.479,-0.276 -0.643,-0.887 -0.366,-1.366c0.277,-0.479 0.889,-0.643 1.366,-0.366l6.062,3.5c0.479,0.276 0.643,0.888 0.366,1.366c-0.185,0.32 -0.521,0.5 -0.867,0.5z" fill="#fcf5e9"></path></g></g></svg>