<svg version="1.1" xmlns="http://www.w3.org/2000/svg" xmlns:xlink="http://www.w3.org/1999/xlink" width="192px" height="192px" viewBox="0,0,255.99808,255.99808"><g fill="none" fill-rule="nonzero" stroke="none" stroke-width="1" stroke-linecap="butt" stroke-linejoin="miter" stroke-miterlimit="10" stroke-dasharray="" stroke-dashoffset="0" font-family="none" font-weight="none" font-size="none" text-anchor="none" style="mix-blend-mode: normal"><g transform="scale(5.33333,5.33333)"><path d="M16,17h-9c-0.553,0 -1,-0.447 -1,-1c0,-0.553 0.447,-1 1,-1h9c2.606,0 4.728,-2.121 4.728,-4.728c0,-2.607 -2.122,-4.726 -4.728,-4.726c-1.278,0 -2.477,0.507 -3.376,1.427c-0.384,0.395 -1.017,0.403 -1.414,0.016c-0.395,-0.386 -0.402,-1.019 -0.016,-1.414c1.278,-1.308 2.985,-2.029 4.806,-2.029c3.71,0 6.728,3.018 6.728,6.727c0,3.709 -3.018,6.727 -6.728,6.727z" fill="#fcf5e9"></path><path d="M31,45c-1.952,0 -3.831,-0.824 -5.153,-2.263c-0.374,-0.406 -0.347,-1.039 0.06,-1.413c0.407,-0.373 1.039,-0.348 1.413,0.06c0.944,1.027 2.285,1.616 3.68,1.616c2.757,0 5,-2.243 5,-5c0,-2.757 -2.243,-5 -5,-5h-24c-0.553,0 -1,-0.447 -1,-1c0,-0.553 0.447,-1 1,-1h24c3.859,0 7,3.141 7,7c0,3.859 -3.141,7 -7,7z" fill="#fcf5e9"></path><path d="M42.382,11.891c-1.616,-1.837 -3.943,-2.891 -6.382,-2.891c-2.122,0 -4.15,0.783 -5.714,2.205c-0.424,0.386 -0.658,0.938 -0.642,1.517c0.017,0.588 0.287,1.139 0.743,1.51c0.769,0.624 1.862,0.592 2.603,-0.077c0.825,-0.745 1.894,-1.155 3.01,-1.155c1.265,0 2.479,0.54 3.333,1.481c0.864,0.952 1.271,2.186 1.145,3.472c-0.222,2.27 -2.297,4.047 -4.724,4.047h-27.754c-1.103,0 -2,0.897 -2,2c0,1.103 0.897,2 2,2h27.739c4.413,0 8.148,-3.176 8.689,-7.387c0.313,-2.438 -0.433,-4.888 -2.046,-6.722z" fill="#8fcae6"></path></g></g></svg>