<svg version="1.1" xmlns="http://www.w3.org/2000/svg" xmlns:xlink="http://www.w3.org/1999/xlink" width="192px" height="192px" viewBox="0,0,255.99808,255.99808"><g fill="none" fill-rule="nonzero" stroke="none" stroke-width="1" stroke-linecap="butt" stroke-linejoin="miter" stroke-miterlimit="10" stroke-dasharray="" stroke-dashoffset="0" font-family="none" font-weight="none" font-size="none" text-anchor="none" style="mix-blend-mode: normal"><g transform="scale(5.33333,5.33333)"><path d="M43.543,32.094c-0.263,-0.307 -0.682,-0.427 -1.068,-0.301c-1.958,0.635 -3.98,0.956 -6.013,0.956c-10.753,0 -19.502,-8.749 -19.502,-19.503c0,-3.07 0.711,-6.029 2.112,-8.794c0.183,-0.36 0.131,-0.795 -0.132,-1.102c-0.263,-0.308 -0.683,-0.428 -1.068,-0.302c-8.895,2.883 -14.872,11.1 -14.872,20.45c0,11.856 9.646,21.502 21.502,21.502c8.136,0 15.482,-4.522 19.173,-11.804c0.182,-0.36 0.131,-0.795 -0.132,-1.102z" fill="#f2ca00"></path><path d="M34.192,10.019l-1.359,-0.267c-0.799,-0.156 -1.418,-0.772 -1.577,-1.57l-0.276,-1.378c-0.093,-0.467 -0.503,-0.804 -0.98,-0.804c-0.477,0 -0.887,0.337 -0.98,0.804l-0.275,1.378c-0.159,0.798 -0.778,1.414 -1.577,1.57l-1.359,0.267c-0.471,0.093 -0.81,0.506 -0.808,0.986c0.002,0.479 0.345,0.891 0.817,0.979l1.332,0.248c0.81,0.15 1.436,0.77 1.596,1.577l0.274,1.386c0.092,0.468 0.502,0.805 0.979,0.806c0.001,0 0.001,0 0.002,0c0.476,0 0.886,-0.336 0.98,-0.803l0.276,-1.369c0.159,-0.787 0.771,-1.4 1.558,-1.562l1.388,-0.286c0.466,-0.097 0.8,-0.508 0.798,-0.984c-0.002,-0.476 -0.341,-0.887 -0.809,-0.978z" fill="#fcf5e9"></path><path d="M38.004,23.981c-0.475,0 -0.887,-0.314 -0.983,-0.779c-0.127,-0.642 -0.597,-1.105 -1.204,-1.219c-0.469,-0.088 -0.812,-0.495 -0.816,-0.973c-0.004,-0.478 0.328,-0.893 0.796,-0.989l0.023,-0.005c0.61,-0.12 1.074,-0.582 1.193,-1.18c0.093,-0.466 0.503,-0.818 0.978,-0.82c0.003,0 0.005,-0.001 0.007,-0.001c0.472,0 0.883,0.314 0.981,0.777c0.128,0.642 0.592,1.104 1.19,1.221c0.467,0.092 0.816,0.502 0.819,0.978c0.003,0.477 -0.318,0.891 -0.784,0.987c-0.639,0.132 -1.097,0.592 -1.216,1.183c-0.094,0.465 -0.507,0.819 -0.981,0.82c-0.001,0 -0.002,0 -0.003,0z" fill="#fcf5e9"></path></g></g></svg>