<svg version="1.1" xmlns="http://www.w3.org/2000/svg" xmlns:xlink="http://www.w3.org/1999/xlink" width="144px" height="144px" viewBox="0,0,255.99808,255.99808"><g fill="none" fill-rule="nonzero" stroke="none" stroke-width="none" stroke-linecap="none" stroke-linejoin="none" stroke-miterlimit="10" stroke-dasharray="" stroke-dashoffset="0" font-family="none" font-weight="none" font-size="none" text-anchor="none" style="mix-blend-mode: normal"><g transform="scale(5.33333,5.33333)"><path d="M35.6,16.9c-0.2,-1.3 -0.3,-2.6 -0.1,-3.9c0.1,-0.8 -0.4,-1.3 -1.2,-1.1c-5.9,1.6 -9.7,7.6 -8.4,13.8c1.3,6.1 7.3,10.2 13.4,9.2c3.9,-0.6 7,-3.1 8.6,-6.3c0.3,-0.6 -0.1,-1.4 -0.9,-1.4c-5.5,-0.4 -10.4,-4.5 -11.4,-10.3z" fill="#ffe082" stroke="none" stroke-width="1" stroke-linecap="butt" stroke-linejoin="miter"></path><path d="M40.1,29.3c1.9,-1.2 3.3,-2.8 4.3,-4.7c0.3,-0.6 -0.1,-1.4 -0.9,-1.4c-5.6,-0.3 -10.4,-4.4 -11.5,-10.2c-0.2,-1.3 -0.3,-2.6 -0.1,-3.9c0.1,-0.8 -0.4,-1.3 -1.2,-1.1c-3.6,1 -6.5,3.6 -7.8,6.9" fill="none" stroke="#ffffff" stroke-width="3" stroke-linecap="round" stroke-linejoin="round"></path><path d="M4,30.9c-0.6,1 -1,2.1 -1,3.3c0,3.4 2.8,6.1 6.1,6.1c2.6,0 19.1,0 21.7,0c3.4,0 6.1,-2.8 6.1,-6.1c0,-3.3 -2.8,-6.1 -6.1,-6.1c-0.3,0 -0.8,0 -1.4,0c0,-5.2 -4.2,-9.5 -9.5,-9.5c-5.3,0 -9.5,4.2 -9.5,9.5" fill="none" stroke="#ffffff" stroke-width="3" stroke-linecap="round" stroke-linejoin="round"></path></g></g></svg>