<svg version="1.1" xmlns="http://www.w3.org/2000/svg" xmlns:xlink="http://www.w3.org/1999/xlink" width="144px" height="144px" viewBox="0,0,255.99808,255.99808"><g fill="none" fill-rule="nonzero" stroke="none" stroke-width="none" stroke-linecap="none" stroke-linejoin="none" stroke-miterlimit="10" stroke-dasharray="" stroke-dashoffset="0" font-family="none" font-weight="none" font-size="none" text-anchor="none" style="mix-blend-mode: normal"><g transform="scale(5.33333,5.33333)"><path d="M17.1,30.9c1.3,1.9 3.2,3.5 5.6,4.5c5.5,2.2 11.9,0.4 15.3,-4.5c4.5,-6.4 2.4,-15 -4.2,-18.7c-1.7,-1 -3.6,-1.5 -5.5,-1.6c-0.7,0 -1.2,0.7 -1,1.4c1.4,3.4 1.2,7.4 -0.7,10.9c-1.9,3.5 -5.3,5.7 -8.9,6.4c-0.7,0.2 -1,1 -0.6,1.6z" fill="#ffe082" stroke="none" stroke-width="1" stroke-linecap="butt" stroke-linejoin="miter"></path><path d="M32.5,40.5h-17" fill="none" stroke="#ffffff" stroke-width="3" stroke-linecap="round" stroke-linejoin="miter"></path><path d="M11.3,34.5h-1.8" fill="none" stroke="#ffffff" stroke-width="3" stroke-linecap="round" stroke-linejoin="miter"></path><path d="M38.5,34.5h-22.9" fill="none" stroke="#ffffff" stroke-width="3" stroke-linecap="round" stroke-linejoin="miter"></path><path d="M29.8,8.2c-1.7,-1 -3.6,-1.5 -5.5,-1.6c-0.7,0 -1.2,0.7 -1,1.4c1.4,3.4 1.2,7.4 -0.7,10.9c-1.9,3.5 -5.3,5.7 -8.9,6.4c-0.7,0.1 -1.1,0.9 -0.7,1.5c0.9,1.3 2,2.4 3.4,3.3" fill="none" stroke="#ffffff" stroke-width="3" stroke-linecap="round" stroke-linejoin="round"></path><path d="M32.3,28.9c0.6,-0.6 1.2,-1.3 1.7,-2c3.3,-4.7 3,-10.8 -0.1,-15" fill="none" stroke="#ffffff" stroke-width="3" stroke-linecap="round" stroke-linejoin="round"></path></g></g></svg>