<svg version="1.1" xmlns="http://www.w3.org/2000/svg" xmlns:xlink="http://www.w3.org/1999/xlink" width="192px" height="192px" viewBox="0,0,255.99808,255.99808"><g fill="none" fill-rule="nonzero" stroke="none" stroke-width="1" stroke-linecap="butt" stroke-linejoin="miter" stroke-miterlimit="10" stroke-dasharray="" stroke-dashoffset="0" font-family="none" font-weight="none" font-size="none" text-anchor="none" style="mix-blend-mode: normal"><g transform="scale(5.33333,5.33333)"><path d="M34,26c-0.641,0 -1.271,0.075 -1.886,0.225c-1.282,-5.907 -6.542,-10.225 -12.693,-10.225c-5.421,0 -10.222,3.334 -12.139,8.359c-4.193,0.765 -7.282,4.418 -7.282,8.746c0,4.905 3.99,8.895 8.895,8.895l0.043,-0.002c0.02,0.002 0.041,0.002 0.062,0.002h25c4.411,0 8,-3.589 8,-8c0,-4.411 -3.589,-8 -8,-8z" fill="#babffc"></path><path d="M38.003,28.833c-0.479,0 -0.902,-0.345 -0.985,-0.834c-0.092,-0.544 0.275,-1.061 0.82,-1.152c2.647,-0.446 5.035,-1.871 6.709,-3.94c-0.513,0.062 -1.029,0.093 -1.547,0.093c-7.168,0 -13,-5.832 -13,-13c0,-1.203 0.163,-2.38 0.487,-3.519c-3.354,1.934 -5.487,5.525 -5.487,9.519c0,0.309 0.013,0.615 0.037,0.917c0.046,0.55 -0.363,1.033 -0.913,1.079c-0.554,0.049 -1.034,-0.364 -1.079,-0.914c-0.03,-0.356 -0.045,-0.717 -0.045,-1.082c0,-5.652 3.613,-10.621 8.991,-12.363c0.385,-0.125 0.806,-0.005 1.068,0.301c0.263,0.307 0.314,0.742 0.132,1.102c-0.79,1.559 -1.191,3.228 -1.191,4.96c0,6.065 4.935,11 11,11c1.146,0 2.288,-0.182 3.392,-0.539c0.382,-0.125 0.805,-0.006 1.068,0.301c0.263,0.307 0.314,0.742 0.132,1.102c-1.863,3.675 -5.386,6.275 -9.422,6.955c-0.056,0.01 -0.112,0.014 -0.167,0.014z" fill="#fcf5e9"></path></g></g></svg>