<svg version="1.1" xmlns="http://www.w3.org/2000/svg" xmlns:xlink="http://www.w3.org/1999/xlink" width="192px" height="192px" viewBox="0,0,255.99808,255.99808"><g fill="none" fill-rule="nonzero" stroke="none" stroke-width="1" stroke-linecap="butt" stroke-linejoin="miter" stroke-miterlimit="10" stroke-dasharray="" stroke-dashoffset="0" font-family="none" font-weight="none" font-size="none" text-anchor="none" style="mix-blend-mode: normal"><g transform="scale(5.33333,5.33333)"><path d="M35,26c-0.649,0 -1.278,0.086 -1.882,0.233c-1.273,-5.842 -6.479,-10.233 -12.697,-10.233c-5.533,0 -10.257,3.481 -12.13,8.363c-4.141,0.759 -7.291,4.386 -7.291,8.742c0,4.905 3.99,8.895 8.895,8.895c0.028,0 0.056,-0.004 0.084,-0.004c0.007,0 0.013,0.004 0.021,0.004h25c4.411,0 8,-3.589 8,-8c0,-4.411 -3.589,-8 -8,-8z" fill="#12d9e3"></path><path d="M41.327,30c-0.314,0 -0.624,-0.147 -0.818,-0.425c-0.318,-0.451 -0.21,-1.075 0.242,-1.393c2.66,-1.872 4.249,-4.932 4.249,-8.182c0,-5.514 -4.486,-10 -10,-10c-4.427,0 -8.378,2.967 -9.607,7.216c-0.153,0.529 -0.707,0.833 -1.239,0.683c-0.53,-0.154 -0.836,-0.708 -0.683,-1.239c1.476,-5.099 6.217,-8.66 11.529,-8.66c6.617,0 12,5.383 12,12c0,3.9 -1.906,7.57 -5.099,9.817c-0.174,0.123 -0.375,0.183 -0.574,0.183z" fill="#fcc419"></path></g></g></svg>