<svg version="1.1" xmlns="http://www.w3.org/2000/svg" xmlns:xlink="http://www.w3.org/1999/xlink" width="144px" height="144px" viewBox="0,0,255.99808,255.99808"><g fill="none" fill-rule="nonzero" stroke="none" stroke-width="none" stroke-linecap="none" stroke-linejoin="none" stroke-miterlimit="10" stroke-dasharray="" stroke-dashoffset="0" font-family="none" font-weight="none" font-size="none" text-anchor="none" style="mix-blend-mode: normal"><g transform="scale(5.33333,5.33333)"><path d="M41.3,31.5c-0.3,0 -0.9,0 -1.5,0c0,-5.7 -4.6,-10.3 -10.3,-10.3c-5.7,0 -10.3,4.6 -10.3,10.3c-0.7,0 -1.2,0 -1.5,0c-3.7,0 -6.7,3 -6.7,6.7c0,3.7 3,6.7 6.7,6.7c2.9,0 20.9,0 23.7,0c3.7,0 6.7,-3 6.7,-6.7c0,-3.7 -3.1,-6.7 -6.8,-6.7z" fill="#8ce7f2" stroke="none" stroke-width="1" stroke-linecap="butt" stroke-linejoin="miter"></path><path d="M9.8,22.4c-0.2,-0.6 -0.3,-1.2 -0.3,-1.9c0,-3.9 3.1,-7 7,-7c3,0 5.6,1.9 6.6,4.6" fill="none" stroke="#ffffff" stroke-width="3" stroke-linecap="round" stroke-linejoin="round"></path><path d="M4.9,23.7l-1.9,0.5" fill="none" stroke="#ffffff" stroke-width="3" stroke-linecap="round" stroke-linejoin="round"></path><path d="M6,14.6l-1.7,-1" fill="none" stroke="#ffffff" stroke-width="3" stroke-linecap="round" stroke-linejoin="round"></path><path d="M13.3,8.9l-0.5,-1.9" fill="none" stroke="#ffffff" stroke-width="3" stroke-linecap="round" stroke-linejoin="round"></path><path d="M22.4,10l1,-1.7" fill="none" stroke="#ffffff" stroke-width="3" stroke-linecap="round" stroke-linejoin="round"></path><path d="M21.4,40.5c6.2,0 14.7,0 16.6,0c3.6,0 6.5,-2.9 6.5,-6.5c0,-3.6 -2.9,-6.5 -6.5,-6.5c-0.3,0 -0.8,0 -1.5,0" fill="none" stroke="#ffffff" stroke-width="3" stroke-linecap="round" stroke-linejoin="round"></path><path d="M35.1,22.4c-1.7,-2.9 -4.9,-4.9 -8.6,-4.9c-5.5,0 -10,4.5 -10,10c-0.7,0 -1.2,0 -1.5,0c-3.6,0 -6.5,2.9 -6.5,6.5c0,3.6 2.9,6.5 6.5,6.5" fill="none" stroke="#ffffff" stroke-width="3" stroke-linecap="round" stroke-linejoin="round"></path></g></g></svg>