<svg version="1.1" xmlns="http://www.w3.org/2000/svg" xmlns:xlink="http://www.w3.org/1999/xlink" width="144px" height="144px" viewBox="0,0,255.99808,255.99808"><g fill="none" fill-rule="nonzero" stroke="none" stroke-width="none" stroke-linecap="none" stroke-linejoin="none" stroke-miterlimit="10" stroke-dasharray="" stroke-dashoffset="0" font-family="none" font-weight="none" font-size="none" text-anchor="none" style="mix-blend-mode: normal"><g transform="scale(5.33333,5.33333)"><path d="M41.5,30.9h-1.5c0,0 0,-0.3 0,-0.5c0,-2.3 -0.9,-4.5 -2.3,-6.1c-1,-1.8 -2.9,-3.1 -5.1,-3.1c-0.5,-0.1 -0.9,-0.2 -1.4,-0.2v-0.2c0,-4.7 -3.8,-8.5 -8.5,-8.5c-4.7,0 -8.5,3.8 -8.5,8.5c0,0.2 0,0.5 0,0.5h-1.4c-3.2,-0.1 -5.8,2.5 -5.8,5.7c0,3.2 2.6,5.8 5.8,5.8h2.1c-1.2,1.2 -1.9,2.8 -1.9,4.6c0,3.6 2.9,6.5 6.5,6.5h22c3.6,0 6.5,-2.9 6.5,-6.5c0,-3.6 -2.9,-6.5 -6.5,-6.5z" fill="#8ce7f2" stroke="none" stroke-width="1" stroke-linecap="butt" stroke-linejoin="miter"></path><path d="M22.8,9.9c-1.3,-0.8 -2.9,-1.3 -4.6,-1.3c-4.7,0 -8.6,3.8 -8.6,8.6c0,0.2 0,0.5 0,0.5h-1.2c-3.2,0 -5.9,2.6 -5.9,5.8c0,1.6 0.7,3.1 1.7,4.1" fill="none" stroke="#ffffff" stroke-width="3" stroke-linecap="round" stroke-linejoin="round"></path><path d="M22.3,39.5c5.7,0 12.7,0 14.7,0c3.6,0 6.5,-2.9 6.5,-6.5c0,-3.6 -2.9,-6.5 -6.5,-6.5h-1.5" fill="none" stroke="#ffffff" stroke-width="3" stroke-linecap="round" stroke-linejoin="round"></path><path d="M32.6,19.2c-1.7,-1.7 -4.1,-2.7 -6.6,-2.7c-5.2,0 -9.5,4.3 -9.5,9.5c0,0.2 0,0.5 0,0.5h-1.5c-3.6,0 -6.5,2.9 -6.5,6.5c0,3.6 2.9,6.5 6.5,6.5" fill="none" stroke="#ffffff" stroke-width="3" stroke-linecap="round" stroke-linejoin="round"></path></g></g></svg>