<svg version="1.1" xmlns="http://www.w3.org/2000/svg" xmlns:xlink="http://www.w3.org/1999/xlink" width="144px" height="144px" viewBox="0,0,255.99808,255.99808"><g fill="none" fill-rule="nonzero" stroke="none" stroke-width="none" stroke-linecap="none" stroke-linejoin="none" stroke-miterlimit="10" stroke-dasharray="" stroke-dashoffset="0" font-family="none" font-weight="none" font-size="none" text-anchor="none" style="mix-blend-mode: normal"><g transform="scale(5.33333,5.33333)"><path d="M14.2,24.5c-0.8,0 -1.5,0.5 -1.9,1.2c-1.1,2.6 -1.9,5.3 -1.9,7.8c0,6.1 4.9,11 11,11c6.1,0 11,-4.9 11,-11c0,-2.5 -0.7,-5.2 -1.9,-7.8c-0.3,-0.7 -1,-1.2 -1.9,-1.2z" fill="#8ce7f2" stroke="none" stroke-width="1" stroke-linecap="butt" stroke-linejoin="miter"></path><path d="M35.5,7.5h3c1.7,0 3,1.3 3,3v27c0,1.7 -1.3,3 -3,3h-3" fill="none" stroke="#ffffff" stroke-width="3" stroke-linecap="round" stroke-linejoin="round"></path><path d="M41.5,24h-3" fill="none" stroke="#ffffff" stroke-width="3" stroke-linecap="round" stroke-linejoin="round"></path><path d="M41.5,32.5h-3" fill="none" stroke="#ffffff" stroke-width="3" stroke-linecap="round" stroke-linejoin="round"></path><path d="M41.5,15.5h-3" fill="none" stroke="#ffffff" stroke-width="3" stroke-linecap="round" stroke-linejoin="round"></path><path d="M20,40.2c-0.8,0.2 -1.6,0.3 -2.5,0.3c-6.1,0 -11,-4.9 -11,-11c0,-0.9 0.1,-1.9 0.3,-2.9" fill="none" stroke="#ffffff" stroke-width="3" stroke-linecap="round" stroke-linejoin="round"></path><path d="M8.9,20.5c2.5,-5.3 6.2,-10.1 7.8,-12.1c0.4,-0.5 1.1,-0.5 1.5,0c2.5,3 10.2,13.1 10.2,21.1c0,2.6 -0.9,5 -2.4,6.9" fill="none" stroke="#ffffff" stroke-width="3" stroke-linecap="round" stroke-linejoin="round"></path><path d="M14.9,20.5h11.2" fill="none" stroke="#ffffff" stroke-width="3" stroke-linecap="round" stroke-linejoin="round"></path></g></g></svg>