<svg version="1.1" xmlns="http://www.w3.org/2000/svg" xmlns:xlink="http://www.w3.org/1999/xlink" width="192px" height="192px" viewBox="0,0,255.99808,255.99808"><g fill="none" fill-rule="nonzero" stroke="none" stroke-width="1" stroke-linecap="butt" stroke-linejoin="miter" stroke-miterlimit="10" stroke-dasharray="" stroke-dashoffset="0" font-family="none" font-weight="none" font-size="none" text-anchor="none" style="mix-blend-mode: normal"><g transform="scale(5.33333,5.33333)"><path d="M20.005,5.981c-0.485,-0.624 -1.216,-0.981 -2.005,-0.981c-0.789,0 -1.52,0.357 -2.005,0.981c-3.571,4.588 -11.878,16.034 -11.878,23.189c0,7.626 6.228,13.83 13.883,13.83c7.655,0 13.883,-6.204 13.883,-13.83c0,-7.155 -8.307,-18.601 -11.878,-23.189z" fill="#8fcae6"></path><path d="M41,43h-4.108c-0.553,0 -1,-0.447 -1,-1c0,-0.553 0.447,-1 1,-1h4.108v-34h-4c-0.553,0 -1,-0.447 -1,-1c0,-0.553 0.447,-1 1,-1h4c1.103,0 2,0.897 2,2v34c0,1.103 -0.897,2 -2,2z" fill="#fcf5e9"></path><path d="M42,25h-3c-0.553,0 -1,-0.447 -1,-1c0,-0.553 0.447,-1 1,-1h3c0.553,0 1,0.447 1,1c0,0.553 -0.447,1 -1,1z" fill="#fcf5e9"></path><path d="M42,19h-5c-0.553,0 -1,-0.447 -1,-1c0,-0.553 0.447,-1 1,-1h5c0.553,0 1,0.447 1,1c0,0.553 -0.447,1 -1,1z" fill="#fcf5e9"></path><path d="M42,13h-3c-0.553,0 -1,-0.447 -1,-1c0,-0.553 0.447,-1 1,-1h3c0.553,0 1,0.447 1,1c0,0.553 -0.447,1 -1,1z" fill="#fcf5e9"></path><path d="M42,31h-5c-0.553,0 -1,-0.447 -1,-1c0,-0.553 0.447,-1 1,-1h5c0.553,0 1,0.447 1,1c0,0.553 -0.447,1 -1,1z" fill="#fcf5e9"></path><path d="M42,37h-3c-0.553,0 -1,-0.447 -1,-1c0,-0.553 0.447,-1 1,-1h3c0.553,0 1,0.447 1,1c0,0.553 -0.447,1 -1,1z" fill="#fcf5e9"></path><path d="M25.143,31.02c-3.202,0 -6.068,-1.306 -7.787,-2.755c-2.413,-2.036 -8,-3.831 -12.725,0.011c-0.429,0.351 -1.059,0.284 -1.406,-0.145c-0.349,-0.428 -0.284,-1.058 0.145,-1.406c5.696,-4.637 12.257,-2.534 15.275,0.011c2.413,2.035 8.002,3.832 12.725,-0.011c0.431,-0.35 1.06,-0.283 1.406,0.145c0.349,0.428 0.284,1.058 -0.145,1.406c-2.453,1.996 -5.067,2.744 -7.488,2.744z" fill="#fcf5e9"></path></g></g></svg>