<svg version="1.1" xmlns="http://www.w3.org/2000/svg" xmlns:xlink="http://www.w3.org/1999/xlink" width="192px" height="192px" viewBox="0,0,255.99808,255.99808"><g fill="none" fill-rule="nonzero" stroke="none" stroke-width="1" stroke-linecap="butt" stroke-linejoin="miter" stroke-miterlimit="10" stroke-dasharray="" stroke-dashoffset="0" font-family="none" font-weight="none" font-size="none" text-anchor="none" style="mix-blend-mode: normal"><g transform="scale(5.33333,5.33333)"><path d="M44.362,12.293l-35.241,-4.286c-0.29,-0.036 -0.57,0.055 -0.784,0.244c-0.214,0.19 -0.337,0.463 -0.337,0.749v16c0,0.286 0.123,0.559 0.337,0.749c0.184,0.162 0.42,0.251 0.663,0.251c0.04,0 0.08,-0.002 0.121,-0.007l35.241,-4.286c1.504,-0.184 2.638,-1.464 2.638,-2.978v-3.457c0,-1.515 -1.134,-2.795 -2.638,-2.979z" fill="#fc9c9c"></path><path d="M5,45c-0.553,0 -1,-0.447 -1,-1v-39c0,-0.553 0.447,-1 1,-1c0.553,0 1,0.447 1,1v39c0,0.553 -0.447,1 -1,1z" fill="#fcf5e9"></path><path d="M18,26c-0.553,0 -1,-0.447 -1,-1v-16c0,-0.553 0.447,-1 1,-1c0.553,0 1,0.447 1,1v16c0,0.553 -0.447,1 -1,1z" fill="#fcf5e9"></path><path d="M38,23.4c-0.553,0 -1,-0.447 -1,-1v-10.8c0,-0.553 0.447,-1 1,-1c0.553,0 1,0.447 1,1v10.8c0,0.553 -0.447,1 -1,1z" fill="#fcf5e9"></path><path d="M28,24.7c-0.553,0 -1,-0.447 -1,-1v-13.4c0,-0.553 0.447,-1 1,-1c0.553,0 1,0.447 1,1v13.4c0,0.553 -0.447,1 -1,1z" fill="#fcf5e9"></path></g></g></svg>