<svg version="1.1" xmlns="http://www.w3.org/2000/svg" xmlns:xlink="http://www.w3.org/1999/xlink" width="192px" height="192px" viewBox="0,0,255.99808,255.99808"><g fill="none" fill-rule="nonzero" stroke="none" stroke-width="1" stroke-linecap="butt" stroke-linejoin="miter" stroke-miterlimit="10" stroke-dasharray="" stroke-dashoffset="0" font-family="none" font-weight="none" font-size="none" text-anchor="none" style="mix-blend-mode: normal"><g transform="scale(5.33333,5.33333)"><path d="M37,13c-0.649,0 -1.278,0.086 -1.882,0.233c-1.273,-5.842 -6.479,-10.233 -12.697,-10.233c-5.533,0 -10.257,3.481 -12.13,8.363c-4.141,0.759 -7.291,4.386 -7.291,8.742c0,4.905 3.99,8.895 8.895,8.895c0.028,0 0.056,-0.004 0.084,-0.004c0.007,0 0.013,0.004 0.021,0.004h25c4.411,0 8,-3.589 8,-8c0,-4.411 -3.589,-8 -8,-8z" fill="#12d9e3"></path><path d="M8.708,42.084c-0.972,0 -1.943,-0.37 -2.683,-1.109c-1.479,-1.479 -1.479,-3.886 0,-5.364c1.532,-1.533 5.246,-1.611 5.975,-1.611c0.553,0 1,0.447 1,1c0,0.729 -0.078,4.442 -1.61,5.975v0v0c-0.74,0.739 -1.711,1.109 -2.682,1.109zM10.954,36.046c-1.37,0.11 -2.962,0.426 -3.515,0.979c-0.699,0.699 -0.699,1.837 0,2.536c0.699,0.699 1.837,0.699 2.536,0v0c0.553,-0.553 0.869,-2.145 0.979,-3.515z" fill="#fcf5e9"></path><path d="M35.708,42.084c-0.972,0 -1.943,-0.37 -2.683,-1.109c-1.479,-1.479 -1.479,-3.886 0,-5.364c1.532,-1.533 5.246,-1.611 5.975,-1.611c0.553,0 1,0.447 1,1c0,0.729 -0.078,4.442 -1.61,5.975v0v0c-0.74,0.739 -1.711,1.109 -2.682,1.109zM37.954,36.046c-1.37,0.11 -2.962,0.426 -3.515,0.979c-0.699,0.699 -0.699,1.837 0,2.536c0.698,0.699 1.836,0.699 2.536,0v0c0.553,-0.553 0.869,-2.145 0.979,-3.515z" fill="#fcf5e9"></path><path d="M20,44c-0.14,0 -0.28,-0.029 -0.413,-0.089c-0.41,-0.187 -0.646,-0.624 -0.574,-1.069l1.576,-9.842h-3.208c-0.312,0 -0.605,-0.146 -0.795,-0.394c-0.19,-0.248 -0.252,-0.569 -0.17,-0.87l3.286,-12c0.119,-0.434 0.515,-0.736 0.965,-0.736h8.762c0.346,0 0.666,0.179 0.849,0.472c0.183,0.293 0.201,0.66 0.049,0.97l-3.721,7.558h5.013c0.388,0 0.74,0.224 0.905,0.575c0.165,0.351 0.111,0.766 -0.136,1.063l-11.619,14c-0.194,0.235 -0.479,0.362 -0.769,0.362zM18.691,31h3.07c0.293,0 0.571,0.128 0.761,0.352c0.19,0.223 0.273,0.518 0.227,0.807l-1.184,7.39l7.924,-9.549h-4.489c-0.346,0 -0.666,-0.179 -0.849,-0.472c-0.183,-0.293 -0.201,-0.66 -0.049,-0.97l3.72,-7.558h-6.392z" fill="#fcf5e9"></path></g></g></svg>