<svg version="1.1" xmlns="http://www.w3.org/2000/svg" xmlns:xlink="http://www.w3.org/1999/xlink" width="144px" height="144px" viewBox="0,0,255.99808,255.99808"><g fill="none" fill-rule="nonzero" stroke="none" stroke-width="none" stroke-linecap="none" stroke-linejoin="none" stroke-miterlimit="10" stroke-dasharray="" stroke-dashoffset="0" font-family="none" font-weight="none" font-size="none" text-anchor="none" style="mix-blend-mode: normal"><g transform="scale(5.33333,5.33333)"><path d="M40.8,28.6c-0.1,0 -2.1,0 -2.1,0c0,0 0,-0.3 0,-0.5c0,-4.8 -3.9,-8.7 -8.7,-8.7c-4.8,0 -8.7,3.9 -8.7,8.7c0,0.2 0,0.5 0,0.5c0,0 -1.9,0 -2.1,0c-3.4,0 -6.2,2.8 -6.2,6.2c0,3.4 2.8,6.2 6.2,6.2c2.6,0 19,0 21.6,0c3.4,0 6.2,-2.8 6.2,-6.2c-0.1,-3.4 -2.8,-6.2 -6.2,-6.2z" fill="#8ce7f2" stroke="none" stroke-width="1" stroke-linecap="butt" stroke-linejoin="miter"></path><path d="M36.5,24.5c-0.1,0 -2,0 -2,0c0,0 0,-0.3 0,-0.5c0,-4.7 -3.8,-8.5 -8.5,-8.5c-4.7,0 -8.5,3.8 -8.5,8.5c0,0.2 0,0.5 0,0.5c0,0 -1.9,0 -2,0c-3.3,0 -6,2.7 -6,6c0,3.3 2.7,6 6,6c0.6,0 1,0 2.8,0" fill="none" stroke="#ffffff" stroke-width="3" stroke-linecap="round" stroke-linejoin="round"></path><path d="M33.3,36.5c2,0 2.5,0 3.2,0c3.3,0 6,-2.7 6,-6c0,-0.8 -0.2,-1.6 -0.5,-2.3" fill="none" stroke="#ffffff" stroke-width="3" stroke-linecap="round" stroke-linejoin="round"></path><path d="M12,20.4c-0.3,-0.7 -0.5,-1.6 -0.5,-2.4c0,-3.6 2.9,-6.5 6.5,-6.5c1.1,0 2.2,0.3 3.1,0.8" fill="none" stroke="#ffffff" stroke-width="3" stroke-linecap="round" stroke-linejoin="round"></path><path d="M6.8,20l-2,0.4" fill="none" stroke="#ffffff" stroke-width="3" stroke-linecap="round" stroke-linejoin="round"></path><path d="M8.2,11.7l-1.7,-1.1" fill="none" stroke="#ffffff" stroke-width="3" stroke-linecap="round" stroke-linejoin="round"></path><path d="M15,6.8l-0.4,-2" fill="none" stroke="#ffffff" stroke-width="3" stroke-linecap="round" stroke-linejoin="round"></path><path d="M23.3,8.2l1.1,-1.7" fill="none" stroke="#ffffff" stroke-width="3" stroke-linecap="round" stroke-linejoin="round"></path><path d="M27.5,30.5l-3.6,4.4c-0.5,0.7 -0.1,1.6 0.8,1.6h2.7c0.8,0 1.3,1 0.8,1.6l-3.6,4.4" fill="none" stroke="#ffffff" stroke-width="3" stroke-linecap="round" stroke-linejoin="round"></path></g></g></svg>