<svg version="1.1" xmlns="http://www.w3.org/2000/svg" xmlns:xlink="http://www.w3.org/1999/xlink" width="192px" height="192px" viewBox="0,0,255.99808,255.99808"><g fill="none" fill-rule="nonzero" stroke="none" stroke-width="1" stroke-linecap="butt" stroke-linejoin="miter" stroke-miterlimit="10" stroke-dasharray="" stroke-dashoffset="0" font-family="none" font-weight="none" font-size="none" text-anchor="none" style="mix-blend-mode: normal"><g transform="scale(5.33333,5.33333)"><circle cx="24" cy="24" r="16" fill="#f2ca00"></circle><path d="M24,6c-0.553,0 -1,-0.447 -1,-1v-4c0,-0.553 0.447,-1 1,-1c0.553,0 1,0.447 1,1v4c0,0.553 -0.447,1 -1,1z" fill="#fcf5e9"></path><path d="M10.565,11.565c-0.256,0 -0.512,-0.098 -0.707,-0.293l-2.829,-2.829c-0.391,-0.391 -0.391,-1.023 0,-1.414c0.391,-0.391 1.023,-0.391 1.414,0l2.829,2.829c0.391,0.391 0.391,1.023 0,1.414c-0.195,0.196 -0.451,0.293 -0.707,0.293z" fill="#fcf5e9"></path><path d="M37.435,11.565c-0.256,0 -0.512,-0.098 -0.707,-0.293c-0.391,-0.391 -0.391,-1.023 0,-1.414l2.829,-2.829c0.391,-0.391 1.023,-0.391 1.414,0c0.391,0.391 0.391,1.023 0,1.414l-2.829,2.829c-0.196,0.196 -0.452,0.293 -0.707,0.293z" fill="#fcf5e9"></path><path d="M47,25h-4c-0.553,0 -1,-0.447 -1,-1c0,-0.553 0.447,-1 1,-1h4c0.553,0 1,0.447 1,1c0,0.553 -0.447,1 -1,1z" fill="#fcf5e9"></path><path d="M40.264,41.264c-0.256,0 -0.512,-0.098 -0.707,-0.293l-2.829,-2.829c-0.391,-0.391 -0.391,-1.023 0,-1.414c0.391,-0.391 1.023,-0.391 1.414,0l2.829,2.829c0.391,0.391 0.391,1.023 0,1.414c-0.196,0.195 -0.451,0.293 -0.707,0.293z" fill="#fcf5e9"></path><path d="M24,48c-0.553,0 -1,-0.447 -1,-1v-4c0,-0.553 0.447,-1 1,-1c0.553,0 1,0.447 1,1v4c0,0.553 -0.447,1 -1,1z" fill="#fcf5e9"></path><path d="M19,25h-17c-0.553,0 -1,-0.447 -1,-1c0,-0.553 0.447,-1 1,-1h17c0.553,0 1,0.447 1,1c0,0.553 -0.447,1 -1,1z" fill="#fcf5e9"></path><path d="M17,37h-12c-0.553,0 -1,-0.447 -1,-1c0,-0.553 0.447,-1 1,-1h12c0.553,0 1,0.447 1,1c0,0.553 -0.447,1 -1,1z" fill="#fcf5e9"></path><path d="M26,31h-17c-0.553,0 -1,-0.447 -1,-1c0,-0.553 0.447,-1 1,-1h17c0.553,0 1,0.447 1,1c0,0.553 -0.447,1 -1,1z" fill="#fcf5e9"></path></g></g></svg>