<svg version="1.1" xmlns="http://www.w3.org/2000/svg" xmlns:xlink="http://www.w3.org/1999/xlink" wdth="144px" height="144px" viewBox="0,0,255.99808,255.99808"><g fill="none" fill-rule="nonzero" stroke="none" stroke-width="none" stroke-linecap="none" stroke-linejoin="miter" stroke-miterlimit="10" stroke-dasharray="" stroke-dashoffset="0" font-family="none" font-weight="none" font-size="none" text-anchor="none" style="mix-blend-mode: normal"><g transform="scale(5.33333,5.33333)"><circle cx="28" cy="28.1" r="8.9" fill="#ffe082" stroke="none" stroke-width="1" stroke-linecap="butt"></circle><path d="M24,5.5v3" fill="none" stroke="#ffffff" stroke-width="3" stroke-linecap="round"></path><path d="M10.9,10.9l2.1,2.1" fill="none" stroke="#ffffff" stroke-width="3" stroke-linecap="round"></path><path d="M5.5,24h3" fill="none" stroke="#ffffff" stroke-width="3" stroke-linecap="round"></path><path d="M42.5,24h-3" fill="none" stroke="#ffffff" stroke-width="3" stroke-linecap="round"></path><path d="M37.1,10.9l-2.1,2.1" fill="none" stroke="#ffffff" stroke-width="3" stroke-linecap="round"></path><path d="M25.7,14.6c-0.5,-0.1 -1.1,-0.1 -1.7,-0.1c-5.2,0 -9.5,4.3 -9.5,9.5c0,1.6 0.4,3.2 1.1,4.5" fill="none" stroke="#ffffff" stroke-width="3" stroke-linecap="round"></path><path d="M32.4,28.5c0.7,-1.3 1.1,-2.9 1.1,-4.5c0,-2.7 -1.1,-5.1 -2.9,-6.8" fill="none" stroke="#ffffff" stroke-width="3" stroke-linecap="round"></path><path d="M15.9,34.5h22.6" fill="none" stroke="#ffffff" stroke-width="3" stroke-linecap="round"></path><path d="M9.5,34.5h2.3" fill="none" stroke="#ffffff" stroke-width="3" stroke-linecap="round"></path><path d="M30.4,40.5h2.1" fill="none" stroke="#ffffff" stroke-width="3" stroke-linecap="round"></path><path d="M15.5,40.5h10.3" fill="none" stroke="#ffffff" stroke-width="3" stroke-linecap="round"></path></g></g></svg>