<svg version="1.1" xmlns="http://www.w3.org/2000/svg" xmlns:xlink="http://www.w3.org/1999/xlink" width="144px" height="144px" viewBox="0,0,255.99808,255.99808"><g fill="none" fill-rule="nonzero" stroke="none" stroke-width="none" stroke-linecap="none" stroke-linejoin="none" stroke-miterlimit="10" stroke-dasharray="" stroke-dashoffset="0" font-family="none" font-weight="none" font-size="none" text-anchor="none" style="mix-blend-mode: normal"><g transform="scale(5.33333,5.33333)"><path d="M40.8,22.5c-0.7,0 -2,0 -2,0c0,0 0,-0.2 0,-0.5c0,-5.9 -4.8,-10.8 -10.8,-10.8c-6,0 -10.8,4.8 -10.8,10.8c0,0.3 0,0.5 0,0.5c0,0 -1.3,0 -2,0c-4,0 -7.2,3.2 -7.2,7.2c0,4 3.2,7.2 7.2,7.2c3.5,0 22.1,0 25.6,0c4,0 7.2,-3.2 7.2,-7.2c0,-4 -3.2,-7.2 -7.2,-7.2z" fill="#8ce7f2" stroke="none" stroke-width="1" stroke-linecap="butt" stroke-linejoin="miter"></path><path d="M24,7.5c-5.8,0 -10.5,4.7 -10.5,10.5c0,0.3 0,0.5 0,0.5c0,0 -1.3,0 -2,0c-3.9,0 -7,3.1 -7,7c0,2.1 0.9,4 2.4,5.2" fill="none" stroke="#ffffff" stroke-width="3" stroke-linecap="round" stroke-linejoin="round"></path><path d="M41.8,30.1c1.1,-1.2 1.7,-2.8 1.7,-4.6c0,-3.9 -3.1,-7 -7,-7c-0.7,0 -2,0 -2,0c0,0 0,-0.2 0,-0.5c0,-2.5 -0.9,-4.8 -2.3,-6.5" fill="none" stroke="#ffffff" stroke-width="3" stroke-linecap="round" stroke-linejoin="round"></path><path d="M25.8,31.5c1,-0.8 1.7,-2.1 1.7,-3.5c0,-2.5 -2,-4.5 -4.5,-4.5c-2.3,0 -4.2,1.8 -4.5,4" fill="none" stroke="#ffffff" stroke-width="3" stroke-linecap="round" stroke-linejoin="miter"></path><path d="M13.5,32.5c0,0 5.3,0 7.7,0" fill="none" stroke="#ffffff" stroke-width="3" stroke-linecap="round" stroke-linejoin="miter"></path><path d="M28.5,37.5c1.4,0 2.5,1.1 2.5,2.5c0,1.4 -1.1,2.5 -2.5,2.5" fill="none" stroke="#ffffff" stroke-width="3" stroke-linecap="round" stroke-linejoin="miter"></path><path d="M28.5,37.5c3.7,0 4.8,0 5,0c1.7,0 3,-1.3 3,-3c0,-1.7 -1.3,-3 -3,-3c-0.8,0 -1.5,0.3 -2,0.8" fill="none" stroke="#ffffff" stroke-width="3" stroke-linecap="round" stroke-linejoin="miter"></path><path d="M13.5,37.5c0,0 6.7,0 10.1,0" fill="none" stroke="#ffffff" stroke-width="3" stroke-linecap="round" stroke-linejoin="miter"></path></g></g></svg>