<svg version="1.1" xmlns="http://www.w3.org/2000/svg" xmlns:xlink="http://www.w3.org/1999/xlink" width="192px" height="192px" viewBox="0,0,255.99808,255.99808"><g fill="none" fill-rule="nonzero" stroke="none" stroke-width="1" stroke-linecap="butt" stroke-linejoin="miter" stroke-miterlimit="10" stroke-dasharray="" stroke-dashoffset="0" font-family="none" font-weight="none" font-size="none" text-anchor="none" style="mix-blend-mode: normal"><g transform="scale(5.33333,5.33333)"><path d="M41.889,28.582l-7.889,-2.483v-4.198l7.889,-2.483c0.375,-0.118 0.646,-0.444 0.693,-0.835l0.598,-4.964c0.053,-0.44 -0.191,-0.864 -0.601,-1.039l-4.598,-1.964c-0.358,-0.153 -0.779,-0.083 -1.068,0.183l-6.206,5.692l-3.583,-1.938l1.852,-8.336c0.086,-0.384 -0.062,-0.781 -0.376,-1.017l-4,-3c-0.355,-0.268 -0.844,-0.268 -1.199,0l-4,3c-0.314,0.235 -0.462,0.633 -0.377,1.017l1.852,8.336l-3.583,1.938l-6.206,-5.692c-0.289,-0.266 -0.709,-0.336 -1.068,-0.183l-4.598,1.964c-0.409,0.175 -0.653,0.599 -0.601,1.039l0.598,4.964c0.047,0.391 0.318,0.717 0.693,0.835l7.889,2.483v4.198l-7.889,2.483c-0.375,0.118 -0.646,0.444 -0.693,0.835l-0.598,4.964c-0.053,0.44 0.191,0.864 0.601,1.039l4.598,1.964c0.126,0.054 0.26,0.08 0.393,0.08c0.245,0 0.488,-0.091 0.676,-0.263l6.206,-5.692l3.583,1.938l-1.852,8.336c-0.085,0.384 0.062,0.781 0.377,1.017l4,3c0.178,0.134 0.389,0.2 0.6,0.2c0.211,0 0.422,-0.066 0.6,-0.2l4,-3c0.314,-0.235 0.462,-0.633 0.377,-1.017l-1.852,-8.336l3.583,-1.938l6.206,5.692c0.188,0.172 0.431,0.263 0.676,0.263c0.133,0 0.267,-0.026 0.393,-0.08l4.598,-1.964c0.409,-0.175 0.653,-0.599 0.601,-1.039l-0.598,-4.964c-0.051,-0.391 -0.322,-0.717 -0.697,-0.835zM29,26.507l-5,2.705l-5,-2.705v-5.636l5,-2.705l5,2.705z" fill="#8fcae6"></path><path d="M24,10c-0.178,0 -0.356,-0.048 -0.515,-0.143l-5,-3c-0.474,-0.284 -0.627,-0.898 -0.343,-1.372c0.284,-0.474 0.897,-0.628 1.372,-0.343l4.486,2.692l4.485,-2.691c0.475,-0.285 1.088,-0.131 1.372,0.343c0.284,0.474 0.131,1.088 -0.343,1.372l-5,3c-0.158,0.094 -0.336,0.142 -0.514,0.142z" fill="#fcf5e9"></path><path d="M24,15c-0.553,0 -1,-0.447 -1,-1v-12c0,-0.553 0.447,-1 1,-1c0.553,0 1,0.447 1,1v12c0,0.553 -0.447,1 -1,1z" fill="#fcf5e9"></path><path d="M5.912,20.33c-0.352,0 -0.692,-0.186 -0.875,-0.515c-0.269,-0.483 -0.094,-1.092 0.389,-1.359l4.574,-2.539l-0.089,-5.23c-0.009,-0.552 0.431,-1.007 0.983,-1.017c0.553,0.039 1.007,0.431 1.017,0.983l0.099,5.83c0.006,0.369 -0.191,0.712 -0.515,0.891l-5.099,2.83c-0.153,0.086 -0.32,0.126 -0.484,0.126z" fill="#fcf5e9"></path><path d="M15.339,20c-0.17,0 -0.342,-0.043 -0.499,-0.134l-10.393,-6c-0.478,-0.276 -0.642,-0.887 -0.366,-1.366c0.275,-0.479 0.889,-0.644 1.366,-0.366l10.393,6c0.479,0.276 0.643,0.888 0.366,1.366c-0.185,0.32 -0.521,0.5 -0.867,0.5z" fill="#fcf5e9"></path><path d="M10.911,38.33c-0.006,0 -0.011,0 -0.017,0c-0.553,-0.01 -0.992,-0.465 -0.983,-1.017l0.089,-5.23l-4.574,-2.539c-0.482,-0.268 -0.657,-0.876 -0.389,-1.359c0.268,-0.482 0.878,-0.658 1.359,-0.389l5.099,2.83c0.323,0.179 0.521,0.521 0.515,0.891l-0.099,5.83c-0.01,0.547 -0.455,0.983 -1,0.983z" fill="#fcf5e9"></path><path d="M4.948,36c-0.346,0 -0.682,-0.179 -0.867,-0.5c-0.276,-0.479 -0.112,-1.09 0.366,-1.366l10.393,-6c0.477,-0.276 1.09,-0.113 1.366,0.366c0.276,0.479 0.112,1.09 -0.366,1.366l-10.393,6c-0.157,0.091 -0.329,0.134 -0.499,0.134z" fill="#fcf5e9"></path><path d="M28.999,43c-0.175,0 -0.353,-0.046 -0.514,-0.143l-4.485,-2.691l-4.485,2.691c-0.475,0.285 -1.088,0.131 -1.372,-0.343c-0.284,-0.474 -0.131,-1.088 0.343,-1.372l5,-3c0.316,-0.189 0.713,-0.189 1.029,0l5,3c0.474,0.284 0.627,0.898 0.343,1.372c-0.188,0.313 -0.519,0.486 -0.859,0.486z" fill="#fcf5e9"></path><path d="M24,47c-0.553,0 -1,-0.447 -1,-1v-12c0,-0.553 0.447,-1 1,-1c0.553,0 1,0.447 1,1v12c0,0.553 -0.447,1 -1,1z" fill="#fcf5e9"></path><path d="M37.089,38.33c-0.545,0 -0.99,-0.437 -1,-0.983l-0.099,-5.83c-0.006,-0.369 0.191,-0.712 0.515,-0.891l5.099,-2.83c0.481,-0.27 1.092,-0.094 1.359,0.389c0.269,0.483 0.094,1.092 -0.389,1.359l-4.574,2.539l0.089,5.23c0.009,0.552 -0.431,1.007 -0.983,1.017c-0.006,0 -0.011,0 -0.017,0z" fill="#fcf5e9"></path><path d="M43.052,36c-0.17,0 -0.342,-0.043 -0.499,-0.134l-10.393,-6c-0.479,-0.276 -0.643,-0.888 -0.366,-1.366c0.276,-0.478 0.889,-0.643 1.366,-0.366l10.393,6c0.479,0.276 0.643,0.888 0.366,1.366c-0.186,0.32 -0.522,0.5 -0.867,0.5z" fill="#fcf5e9"></path><path d="M42.088,20.33c-0.164,0 -0.331,-0.04 -0.484,-0.126l-5.099,-2.83c-0.323,-0.179 -0.521,-0.521 -0.515,-0.891l0.099,-5.83c0.01,-0.547 0.455,-0.983 1,-0.983c0.006,0 0.011,0 0.017,0c0.553,0.01 0.992,0.465 0.983,1.017l-0.089,5.23l4.574,2.539c0.482,0.268 0.657,0.876 0.389,1.359c-0.183,0.33 -0.524,0.515 -0.875,0.515z" fill="#fcf5e9"></path><path d="M32.661,20c-0.346,0 -0.682,-0.179 -0.867,-0.5c-0.276,-0.479 -0.112,-1.09 0.366,-1.366l10.393,-6c0.477,-0.277 1.089,-0.113 1.366,0.366c0.276,0.479 0.112,1.09 -0.366,1.366l-10.393,6c-0.157,0.091 -0.329,0.134 -0.499,0.134z" fill="#fcf5e9"></path></g></g></svg>