<svg version="1.1" xmlns="http://www.w3.org/2000/svg" xmlns:xlink="http://www.w3.org/1999/xlink" width="144px" height="144px" viewBox="0,0,255.99808,255.99808"><g fill="none" fill-rule="nonzero" stroke="none" stroke-width="none" stroke-linecap="none" stroke-linejoin="none" stroke-miterlimit="10" stroke-dasharray="" stroke-dashoffset="0" font-family="none" font-weight="none" font-size="none" text-anchor="none" style="mix-blend-mode: normal"><g transform="scale(5.33333,5.33333)"><path d="M40.1,20.5c-0.7,0 -1.9,0 -1.9,0c0,0 0,-0.2 0,-0.5c0,-5.6 -4.6,-10.2 -10.2,-10.2c-5.6,0 -10.2,4.6 -10.2,10.2c0,0.3 0,0.5 0,0.5c0,0 -1.3,0 -1.9,0c-3.8,0 -6.8,3 -6.8,6.8c0,3.8 3,6.8 6.8,6.8c3.3,0 20.9,0 24.3,0c3.8,0 6.8,-3 6.8,-6.8c0,-3.8 -3.1,-6.8 -6.9,-6.8z" fill="#8ce7f2" stroke="none" stroke-width="1" stroke-linecap="butt" stroke-linejoin="miter"></path><path d="M32.3,9.5c-1.9,-2.4 -4.9,-4 -8.3,-4c-5.8,0 -10.5,4.7 -10.5,10.5c0,0.3 0,0.5 0,0.5" fill="none" stroke="#ffffff" stroke-width="3" stroke-linecap="round" stroke-linejoin="round"></path><path d="M6.9,18.2c-1.5,1.3 -2.4,3.2 -2.4,5.3c0,3.9 3.1,7 7,7c3.4,0 21.6,0 25,0c3.9,0 7,-3.1 7,-7c0,-3.9 -3.1,-7 -7,-7c-0.7,0 -2,0 -2,0" fill="none" stroke="#ffffff" stroke-width="3" stroke-linecap="round" stroke-linejoin="round"></path><path d="M33.7,34.1l-1.7,2.3c-0.3,0.4 -0.3,0.8 0,1.2l1.8,2.3c0.4,0.5 1.2,0.5 1.6,0l1.8,-2.3c0.3,-0.4 0.3,-0.8 0,-1.2l-1.8,-2.3c-0.5,-0.6 -1.3,-0.6 -1.7,0z" fill="#ffffff" stroke="none" stroke-width="1" stroke-linecap="butt" stroke-linejoin="miter"></path><path d="M22.7,38.1l-1.7,2.3c-0.3,0.4 -0.3,0.8 0,1.2l1.8,2.3c0.4,0.5 1.2,0.5 1.6,0l1.8,-2.3c0.3,-0.4 0.3,-0.8 0,-1.2l-1.8,-2.3c-0.5,-0.6 -1.3,-0.6 -1.7,0z" fill="#ffffff" stroke="none" stroke-width="1" stroke-linecap="butt" stroke-linejoin="miter"></path><path d="M12.7,34.1l-1.8,2.3c-0.3,0.4 -0.3,0.8 0,1.2l1.8,2.3c0.4,0.5 1.2,0.5 1.6,0l1.7,-2.3c0.3,-0.4 0.3,-0.8 0,-1.2l-1.7,-2.3c-0.4,-0.6 -1.2,-0.6 -1.6,0z" fill="#ffffff" stroke="none" stroke-width="1" stroke-linecap="butt" stroke-linejoin="miter"></path></g></g></svg>