<svg version="1.1" xmlns="http://www.w3.org/2000/svg" xmlns:xlink="http://www.w3.org/1999/xlink" width="192px" height="192px" viewBox="0,0,255.99808,255.99808"><g fill="none" fill-rule="nonzero" stroke="none" stroke-width="1" stroke-linecap="butt" stroke-linejoin="miter" stroke-miterlimit="10" stroke-dasharray="" stroke-dashoffset="0" font-family="none" font-weight="none" font-size="none" text-anchor="none" style="mix-blend-mode: normal"><g transform="scale(5.33333,5.33333)"><path d="M19,43c-1.104,0 -2,-0.896 -2,-2v-12c0,-1.104 0.896,-2 2,-2c1.104,0 2,0.896 2,2v12c0,1.104 -0.896,2 -2,2z" fill="#12d9e3"></path><path d="M19,43c-1.104,0 -2,-0.896 -2,-2v-12c0,-1.104 0.896,-2 2,-2c1.104,0 2,0.896 2,2v12c0,1.104 -0.896,2 -2,2z" fill="#12d9e3"></path><path d="M13.806,40c-0.691,0 -1.363,-0.358 -1.734,-1c-0.552,-0.957 -0.225,-2.18 0.732,-2.732l10.393,-6c0.958,-0.553 2.18,-0.224 2.732,0.732c0.552,0.957 0.225,2.18 -0.732,2.732l-10.393,6c-0.316,0.182 -0.659,0.268 -0.998,0.268z" fill="#12d9e3"></path><path d="M13.806,40c-0.691,0 -1.363,-0.358 -1.734,-1c-0.552,-0.957 -0.225,-2.18 0.732,-2.732l10.393,-6c0.958,-0.553 2.18,-0.224 2.732,0.732c0.552,0.957 0.225,2.18 -0.732,2.732l-10.393,6c-0.316,0.182 -0.659,0.268 -0.998,0.268z" fill="#12d9e3"></path><path d="M24.194,40c-0.339,0 -0.683,-0.086 -0.998,-0.268l-10.393,-6c-0.956,-0.552 -1.283,-1.775 -0.732,-2.732c0.553,-0.956 1.772,-1.285 2.732,-0.732l10.393,6c0.957,0.553 1.284,1.775 0.732,2.732c-0.37,0.642 -1.042,1 -1.734,1z" fill="#12d9e3"></path><path d="M24.194,40c-0.339,0 -0.683,-0.086 -0.998,-0.268l-10.393,-6c-0.956,-0.552 -1.283,-1.775 -0.732,-2.732c0.553,-0.956 1.772,-1.285 2.732,-0.732l10.393,6c0.957,0.553 1.284,1.775 0.732,2.732c-0.37,0.642 -1.042,1 -1.734,1z" fill="#12d9e3"></path><path d="M36,46c-0.553,0 -1,-0.447 -1,-1v-8c0,-0.553 0.447,-1 1,-1c0.553,0 1,0.447 1,1v8c0,0.553 -0.447,1 -1,1z" fill="#fcf5e9"></path><path d="M32.537,44c-0.346,0 -0.682,-0.179 -0.867,-0.5c-0.276,-0.479 -0.112,-1.09 0.366,-1.366l6.928,-4c0.477,-0.276 1.089,-0.113 1.366,0.366c0.276,0.479 0.112,1.09 -0.366,1.366l-6.928,4c-0.157,0.091 -0.329,0.134 -0.499,0.134z" fill="#fcf5e9"></path><path d="M39.463,44c-0.17,0 -0.342,-0.043 -0.499,-0.134l-6.928,-4c-0.479,-0.276 -0.643,-0.888 -0.366,-1.366c0.276,-0.479 0.888,-0.643 1.366,-0.366l6.928,4c0.479,0.276 0.643,0.888 0.366,1.366c-0.185,0.321 -0.521,0.5 -0.867,0.5z" fill="#fcf5e9"></path><path d="M33.5,21c-1.381,0 -2.5,-1.119 -2.5,-2.5v-15c0,-1.381 1.119,-2.5 2.5,-2.5c1.381,0 2.5,1.119 2.5,2.5v15c0,1.381 -1.119,2.5 -2.5,2.5z" fill="#12d9e3"></path><path d="M27.007,17.25c-0.863,0 -1.704,-0.448 -2.167,-1.25c-0.69,-1.195 -0.28,-2.725 0.915,-3.415l12.99,-7.5c1.194,-0.689 2.725,-0.281 3.415,0.915c0.69,1.195 0.28,2.725 -0.915,3.415l-12.99,7.5c-0.394,0.228 -0.823,0.335 -1.248,0.335z" fill="#12d9e3"></path><path d="M39.993,17.25c-0.425,0 -0.854,-0.107 -1.248,-0.335l-12.99,-7.5c-1.195,-0.69 -1.606,-2.22 -0.915,-3.415c0.69,-1.196 2.222,-1.604 3.415,-0.915l12.99,7.5c1.195,0.69 1.605,2.22 0.915,3.415c-0.463,0.802 -1.304,1.25 -2.167,1.25z" fill="#12d9e3"></path><path d="M12,24c-0.553,0 -1,-0.447 -1,-1v-13c0,-0.553 0.447,-1 1,-1c0.553,0 1,0.447 1,1v13c0,0.553 -0.447,1 -1,1z" fill="#fcf5e9"></path><path d="M6.584,20.75c-0.34,0 -0.671,-0.173 -0.858,-0.485c-0.284,-0.474 -0.131,-1.088 0.343,-1.372l10.834,-6.5c0.475,-0.285 1.088,-0.131 1.372,0.343c0.284,0.474 0.131,1.088 -0.343,1.372l-10.834,6.5c-0.161,0.096 -0.339,0.142 -0.514,0.142z" fill="#fcf5e9"></path><path d="M17.416,20.75c-0.175,0 -0.353,-0.046 -0.514,-0.143l-10.834,-6.5c-0.474,-0.284 -0.627,-0.898 -0.343,-1.372c0.284,-0.474 0.898,-0.628 1.372,-0.343l10.834,6.5c0.474,0.284 0.627,0.898 0.343,1.372c-0.187,0.313 -0.518,0.486 -0.858,0.486z" fill="#fcf5e9"></path></g></g></svg>