<svg version="1.1" xmlns="http://www.w3.org/2000/svg" xmlns:xlink="http://www.w3.org/1999/xlink" width="144px" height="144px" viewBox="0,0,255.99808,255.99808"><g fill="none" fill-rule="nonzero" stroke="none" stroke-width="none" stroke-linecap="none" stroke-linejoin="none" stroke-miterlimit="10" stroke-dasharray="" stroke-dashoffset="0" font-family="none" font-weight="none" font-size="none" text-anchor="none" style="mix-blend-mode: normal"><g transform="scale(5.33333,5.33333)"><path d="M33,32.1c0,-5.3 0,-17.7 0,-18.6c0,-2.8 -2.2,-5 -5,-5c-2.8,0 -5,2.2 -5,5c0,1.9 0,12.5 0,18.6c-2.1,1.5 -3.5,4 -3.5,6.9c0,4.7 3.8,8.5 8.5,8.5c4.7,0 8.5,-3.8 8.5,-8.5c0,-2.8 -1.4,-5.3 -3.5,-6.9z" fill="#fc9595" stroke="none" stroke-width="1" stroke-linecap="butt" stroke-linejoin="miter"></path><path d="M29,28.1c0,-5.3 0,-17.7 0,-18.6c0,-2.8 -2.2,-5 -5,-5c-2.8,0 -5,2.2 -5,5c0,0.4 0,1.3 0,2.4" fill="none" stroke="#ffffff" stroke-width="3" stroke-linecap="round" stroke-linejoin="round"></path><path d="M19,17.1c0,3.9 0,7.7 0,11.1c-2.1,1.5 -3.5,4 -3.5,6.9c0,4.7 3.8,8.5 8.5,8.5c4.7,0 8.5,-3.8 8.5,-8.5c0,-0.6 -0.1,-1.2 -0.2,-1.8" fill="none" stroke="#ffffff" stroke-width="3" stroke-linecap="round" stroke-linejoin="round"></path><circle cx="24" cy="35" r="5" fill="#ffffff" stroke="none" stroke-width="1" stroke-linecap="butt" stroke-linejoin="miter"></circle><path d="M24,33.5v-16" fill="none" stroke="#ffffff" stroke-width="3" stroke-linecap="round" stroke-linejoin="miter"></path><path d="M34.5,9.5h3.5" fill="none" stroke="#ffffff" stroke-width="3" stroke-linecap="round" stroke-linejoin="round"></path><path d="M34.5,15.5h6" fill="none" stroke="#ffffff" stroke-width="3" stroke-linecap="round" stroke-linejoin="round"></path><path d="M34.5,21.5h3.5" fill="none" stroke="#ffffff" stroke-width="3" stroke-linecap="round" stroke-linejoin="round"></path></g></g></svg>