<svg version="1.1" xmlns="http://www.w3.org/2000/svg" xmlns:xlink="http://www.w3.org/1999/xlink" width="192px" height="192px" viewBox="0,0,255.99808,255.99808"><g fill="none" fill-rule="nonzero" stroke="none" stroke-width="1" stroke-linecap="butt" stroke-linejoin="miter" stroke-miterlimit="10" stroke-dasharray="" stroke-dashoffset="0" font-family="none" font-weight="none" font-size="none" text-anchor="none" style="mix-blend-mode: normal"><g transform="scale(5.33333,5.33333)"><path d="M30,29.001v-20.001c0,-0.553 -0.447,-1 -1,-1h-10c-0.553,0 -1,0.447 -1,1v20.001c-2.537,1.903 -4.022,4.881 -4,8.071c0.038,5.325 4.397,9.776 9.718,9.924c0.095,0.002 0.191,0.004 0.287,0.004c2.619,0 5.084,-0.999 6.967,-2.83c1.953,-1.899 3.028,-4.446 3.028,-7.17c0,-3.161 -1.485,-6.112 -4,-7.999z" fill="#9cc1fc"></path><path d="M29,9c-0.553,0 -1,-0.447 -1,-1v-3c0,-1.103 -0.897,-2 -2,-2h-4c-1.103,0 -2,0.897 -2,2v3c0,0.553 -0.447,1 -1,1c-0.553,0 -1,-0.447 -1,-1v-3c0,-2.206 1.794,-4 4,-4h4c2.206,0 4,1.794 4,4v3c0,0.553 -0.447,1 -1,1z" fill="#fcf5e9"></path><path d="M30,14h-4c-0.553,0 -1,-0.447 -1,-1c0,-0.553 0.447,-1 1,-1h4c0.553,0 1,0.447 1,1c0,0.553 -0.447,1 -1,1z" fill="#fcf5e9"></path><path d="M30,20h-4c-0.553,0 -1,-0.447 -1,-1c0,-0.553 0.447,-1 1,-1h4c0.553,0 1,0.447 1,1c0,0.553 -0.447,1 -1,1z" fill="#fcf5e9"></path><path d="M30,26h-4c-0.553,0 -1,-0.447 -1,-1c0,-0.553 0.447,-1 1,-1h4c0.553,0 1,0.447 1,1c0,0.553 -0.447,1 -1,1z" fill="#fcf5e9"></path></g></g></svg>