<svg version="1.1" xmlns="http://www.w3.org/2000/svg" xmlns:xlink="http://www.w3.org/1999/xlink" width="144px" height="144px" viewBox="0,0,255.99808,255.99808"><g fill="none" fill-rule="nonzero" stroke="none" stroke-width="none" stroke-linecap="none" stroke-linejoin="none" stroke-miterlimit="10" stroke-dasharray="" stroke-dashoffset="0" font-family="none" font-weight="none" font-size="none" text-anchor="none" style="mix-blend-mode: normal"><g transform="scale(5.33333,5.33333)"><path d="M25.5,19.5c0,-2.8 0.6,-5.5 1.8,-8c-0.3,0 -0.5,0 -0.8,0c-9.9,0 -18,8.1 -18,18c0,9.9 8.1,18 18,18c6.7,0 12.6,-3.7 15.7,-9.2c-9.4,-1.1 -16.7,-9.1 -16.7,-18.8z" fill="#ffe082" stroke="none" stroke-width="1" stroke-linecap="butt" stroke-linejoin="miter"></path><path d="M37,10.5v0c0,-0.8 0.7,-1.5 1.5,-1.5v0c0.8,0 1.5,-0.7 1.5,-1.5c0,-0.8 -0.7,-1.5 -1.5,-1.5v0c-0.8,0 -1.5,-0.7 -1.5,-1.5v0c0,-0.8 -0.7,-1.5 -1.5,-1.5c-0.8,0 -1.5,0.7 -1.5,1.5v0c0,0.8 -0.7,1.5 -1.5,1.5v0c-0.8,0 -1.5,0.7 -1.5,1.5c0,0.8 0.7,1.5 1.5,1.5v0c0.8,0 1.5,0.7 1.5,1.5v0c0,0.8 0.7,1.5 1.5,1.5c0.8,0 1.5,-0.7 1.5,-1.5z" fill="#ffffff" stroke="none" stroke-width="1" stroke-linecap="butt" stroke-linejoin="miter"></path><path d="M43.5,19v0c-0.8,0 -1.5,-0.7 -1.5,-1.5v0c0,-0.8 -0.7,-1.5 -1.5,-1.5c-0.8,0 -1.5,0.7 -1.5,1.5v0c0,0.8 -0.7,1.5 -1.5,1.5v0c-0.8,0 -1.5,0.7 -1.5,1.5c0,0.8 0.7,1.5 1.5,1.5v0c0.8,0 1.5,0.7 1.5,1.5v0c0,0.8 0.7,1.5 1.5,1.5c0.8,0 1.5,-0.7 1.5,-1.5v0c0,-0.8 0.7,-1.5 1.5,-1.5v0c0.8,0 1.5,-0.7 1.5,-1.5c0,-0.8 -0.7,-1.5 -1.5,-1.5z" fill="#ffffff" stroke="none" stroke-width="1" stroke-linecap="butt" stroke-linejoin="miter"></path><path d="M26.9,43c4.8,-1.2 8.9,-4.4 11.3,-8.6c-4.7,-0.6 -9,-2.9 -12,-6.3" fill="none" stroke="#ffffff" stroke-width="3" stroke-linecap="round" stroke-linejoin="round"></path><path d="M22.3,20.8c-0.5,-1.7 -0.8,-3.5 -0.8,-5.3c0,-2.8 0.6,-5.5 1.8,-8c-0.3,0 -0.5,0 -0.8,0c-9.9,0 -18,8.1 -18,18c0,8.4 5.8,15.5 13.6,17.5" fill="none" stroke="#ffffff" stroke-width="3" stroke-linecap="round" stroke-linejoin="round"></path></g></g></svg>