<svg version="1.1" xmlns="http://www.w3.org/2000/svg" xmlns:xlink="http://www.w3.org/1999/xlink" width="192px" height="192px" viewBox="0,0,255.99808,255.99808"><g fill="none" fill-rule="nonzero" stroke="none" stroke-width="1" stroke-linecap="butt" stroke-linejoin="miter" stroke-miterlimit="10" stroke-dasharray="" stroke-dashoffset="0" font-family="none" font-weight="none" font-size="none" text-anchor="none" style="mix-blend-mode: normal"><g transform="scale(5.33333,5.33333)"><path d="M47.543,31.094c-0.263,-0.307 -0.683,-0.428 -1.068,-0.301c-1.958,0.635 -3.98,0.956 -6.013,0.956c-10.753,0 -19.502,-8.749 -19.502,-19.503c0,-3.07 0.711,-6.029 2.112,-8.794c0.183,-0.36 0.131,-0.795 -0.132,-1.102c-0.262,-0.308 -0.682,-0.428 -1.068,-0.302c-8.895,2.883 -14.872,11.1 -14.872,20.45c0,11.856 9.646,21.502 21.502,21.502c8.136,0 15.482,-4.522 19.173,-11.804c0.182,-0.36 0.131,-0.795 -0.132,-1.102z" fill="#f2ca00"></path><path d="M19,29h-17c-0.553,0 -1,-0.447 -1,-1c0,-0.553 0.447,-1 1,-1h17c0.553,0 1,0.447 1,1c0,0.553 -0.447,1 -1,1z" fill="#fcf5e9"></path><path d="M17,41h-12c-0.553,0 -1,-0.447 -1,-1c0,-0.553 0.447,-1 1,-1h12c0.553,0 1,0.447 1,1c0,0.553 -0.447,1 -1,1z" fill="#fcf5e9"></path><path d="M26,35h-17c-0.553,0 -1,-0.447 -1,-1c0,-0.553 0.447,-1 1,-1h17c0.553,0 1,0.447 1,1c0,0.553 -0.447,1 -1,1z" fill="#fcf5e9"></path></g></g></svg>