<svg version="1.1" xmlns="http://www.w3.org/2000/svg" xmlns:xlink="http://www.w3.org/1999/xlink" width="144px" height="144px" viewBox="0,0,255.99808,255.99808"><g fill="none" fill-rule="nonzero" stroke="none" stroke-width="none" stroke-linecap="none" stroke-linejoin="none" stroke-miterlimit="10" stroke-dasharray="" stroke-dashoffset="0" font-family="none" font-weight="none" font-size="none" text-anchor="none" style="mix-blend-mode: normal"><g transform="scale(5.33333,5.33333)"><path d="M40.8,22.5c-0.7,0 -2.1,0 -2.1,0c0,0 0,-0.2 0,-0.5c0,-6 -4.8,-10.8 -10.8,-10.8c-6,0 -10.7,4.8 -10.7,10.7c0,0.3 0,0.5 0,0.5c0,0 -1.3,0 -2.1,0c-4,0 -7.2,3.2 -7.2,7.2c0,4 3.2,7.2 7.2,7.2c3.5,0 22.2,0 25.7,0c4,0 7.2,-3.2 7.2,-7.2c0,-4 -3.2,-7.1 -7.2,-7.1z" fill="#8ce7f2" stroke="none" stroke-width="1" stroke-linecap="butt" stroke-linejoin="miter"></path><path d="M29,32.5c3.4,0 6.3,0 7.5,0c3.9,0 7,-3.1 7,-7c0,-3.9 -3.1,-7 -7,-7c-0.7,0 -2,0 -2,0c0,0 0,-0.2 0,-0.5c0,-5.8 -4.7,-10.5 -10.5,-10.5" fill="none" stroke="#ffffff" stroke-width="3" stroke-linecap="round" stroke-linejoin="round"></path><path d="M16.9,10.2c-2.1,1.9 -3.4,4.7 -3.4,7.8c0,0.3 0,0.5 0,0.5c0,0 -1.3,0 -2,0c-3.9,0 -7,3.1 -7,7c0,3.9 3.1,7 7,7c1.1,0 3.7,0 6.8,0" fill="none" stroke="#ffffff" stroke-width="3" stroke-linecap="round" stroke-linejoin="round"></path><path d="M24,37.5v2" fill="none" stroke="#ffffff" stroke-width="3" stroke-linecap="round" stroke-linejoin="miter"></path><path d="M36,37.5v2" fill="none" stroke="#ffffff" stroke-width="3" stroke-linecap="round" stroke-linejoin="miter"></path><path d="M30,40.5v2" fill="none" stroke="#ffffff" stroke-width="3" stroke-linecap="round" stroke-linejoin="miter"></path></g></g></svg>