<svg version="1.1" xmlns="http://www.w3.org/2000/svg" xmlns:xlink="http://www.w3.org/1999/xlink" width="192px" height="192px" viewBox="0,0,255.99808,255.99808"><g fill="none" fill-rule="nonzero" stroke="none" stroke-width="1" stroke-linecap="butt" stroke-linejoin="miter" stroke-miterlimit="10" stroke-dasharray="" stroke-dashoffset="0" font-family="none" font-weight="none" font-size="none" text-anchor="none" style="mix-blend-mode: normal"><g transform="scale(5.33333,5.33333)"><path d="M39,21c-0.438,0 -0.865,0.042 -1.287,0.103c-1.354,-6.889 -7.433,-12.103 -14.713,-12.103c-6.543,0 -12.106,4.218 -14.151,10.072c-4.973,0.573 -8.849,4.804 -8.849,9.928c0,5.514 4.486,10 10,10h6l10,1l9.5,-1h3.5c4.963,0 9,-4.037 9,-9c0,-4.963 -4.037,-9 -9,-9z" fill="#12d9e3"></path><path d="M35.5,41h-19.5c-3.309,0 -6,-2.691 -6,-6c0,-3.309 2.691,-6 6,-6c0.12,0 0.241,0.005 0.365,0.014c0.922,-4.637 4.964,-8.014 9.8,-8.014c4.432,0 8.242,2.84 9.537,7.003c3.491,0.107 6.298,2.98 6.298,6.497c0,3.584 -2.916,6.5 -6.5,6.5zM16,31c-2.206,0 -4,1.794 -4,4c0,2.206 1.794,4 4,4h19.5c2.481,0 4.5,-2.019 4.5,-4.5c0,-2.481 -2.019,-4.5 -4.5,-4.5c-0.154,0 -0.308,0.008 -0.458,0.023c-0.509,0.051 -0.966,-0.283 -1.076,-0.776c-0.811,-3.62 -4.091,-6.247 -7.801,-6.247c-4.157,0 -7.58,3.119 -7.962,7.255c-0.027,0.291 -0.18,0.555 -0.417,0.724c-0.237,0.169 -0.541,0.226 -0.82,0.155c-0.366,-0.092 -0.673,-0.134 -0.966,-0.134z" fill="#fcf5e9"></path></g></g></svg>