<svg version="1.1" xmlns="http://www.w3.org/2000/svg" xmlns:xlink="http://www.w3.org/1999/xlink" width="144px" height="144px" viewBox="0,0,255.99808,255.99808"><g fill="none" fill-rule="nonzero" stroke="none" stroke-width="none" stroke-linecap="none" stroke-linejoin="none" stroke-miterlimit="10" stroke-dasharray="" stroke-dashoffset="0" font-family="none" font-weight="none" font-size="none" text-anchor="none" style="mix-blend-mode: normal"><g transform="scale(5.33333,5.33333)"><path d="M47.1,24.9c-12.5,8.1 -19.5,0.9 -27.2,3.2c-1.3,0.4 -2.5,-0.6 -2.5,-2v-11.5c0,-1.1 0.9,-2 1.9,-2c11.4,-0.1 11.1,7.8 25.4,4c1.1,-0.3 2.2,0.4 2.4,1.6l0.9,4.6c0.1,0.8 -0.2,1.7 -0.9,2.1z" fill="#ffab91" stroke="none" stroke-width="1" stroke-linecap="butt" stroke-linejoin="miter"></path><path d="M7.5,39.5v-33" fill="none" stroke="#ffffff" stroke-width="3" stroke-linecap="round" stroke-linejoin="round"></path><path d="M23.2,10.3c4.8,2 7.7,5 17.9,2.4c1.1,-0.3 2.3,0.4 2.5,1.6l0.9,4.5c0.2,0.8 -0.2,1.6 -0.9,2.1c-3.3,2.1 -6.2,3.1 -8.9,3.6" fill="none" stroke="#ffffff" stroke-width="3" stroke-linecap="round" stroke-linejoin="round"></path><path d="M28.6,24.6c-4.6,-0.4 -8.5,-1.8 -12.7,-0.6c-1.3,0.4 -2.5,-0.6 -2.5,-1.9v-11.3c0,-1.1 0.9,-2 2,-2c0.6,0 1.2,0 1.8,0.1" fill="none" stroke="#ffffff" stroke-width="3" stroke-linecap="round" stroke-linejoin="round"></path><path d="M23.2,16l0.3,6.5" fill="none" stroke="#ffffff" stroke-width="3" stroke-linecap="round" stroke-linejoin="round"></path><path d="M33.7,14.3l0.5,5.4" fill="none" stroke="#ffffff" stroke-width="3" stroke-linecap="round" stroke-linejoin="round"></path></g></g></svg>